<?xml version="1.0" standalone="no"?><!DOCTYPE svg PUBLIC "-//W3C//DTD SVG 1.1//EN" "http://www.w3.org/Graphics/SVG/1.1/DTD/svg11.dtd" ><svg xmlns="http://www.w3.org/2000/svg"><metadata></metadata><defs><font id="fonteditor" horiz-adv-x="1056"><font-face font-family="Source Han Serif CN Medium" font-weight="400" font-stretch="normal" units-per-em="1000" panose-1="2 0 5 3 0 0 0 0 0 0" ascent="1151" descent="-286" x-height="0" bbox="-90 -274 1044 880" underline-thickness="50" underline-position="-125" unicode-range="U+0021-ff5d" /><missing-glyph horiz-adv-x="1000" d="M100 -120 L900 -120 L900 880 L100 880 L100 -120 ZM500 421 L182 830 L818 830 L500 421 ZM532 380 L850 789 L850 -29 L532 380 ZM182 -70 L500 339 L818 -70 L182 -70 ZM150 789 L468 380 L150 -29 L150 789 Z" /><glyph glyph-name="exclam" unicode="!" d="M158 -14 Q186 -14 206 6.5 Q226 27 226 54.5 Q226 82 206 102.5 Q186 123 157.5 123 Q129 123 109.5 102.5 Q90 82 90 54 Q90 26 109.5 6 Q129 -14 158 -14 ZM158 750 Q129 750 113 733.5 Q97 717 97 683 Q97 662 101 618 Q104 590 112 514 L126 390 L141 230 L174 230 L189 390 L197 463 Q209 564 212 601 Q218 658 218 683 Q218 717 202.5 733.5 Q187 750 158 750 Z" /><glyph glyph-name="quotedbl" unicode="&quot;" d="M100 807 Q46 807 46 742 Q46 713 62 605 L69 558 L83 473 L116 473 L133 580 Q153 706 153 742 Q153 807 100 807 ZM287 807 Q233 807 233 742 Q233 713 249 605 L256 558 L270 473 L303 473 L318 558 L325 605 Q341 712 341 742 Q341 807 287 807 Z" /><glyph glyph-name="numbersign" unicode="#" d="M366 284 L188 284 L211 434 L389 434 L366 284 ZM551 434 L551 517 L444 517 L474 711 L431 711 L402 517 L224 517 L253 711 L210 711 L181 517 L61 517 L61 434 L168 434 L145 284 L26 284 L26 199 L132 199 L102 0 L145 0 L175 199 L353 199 L323 0 L365 0 L396 199 L515 199 L515 284 L409 284 L432 434 L551 434 Z" /><glyph glyph-name="dollar" unicode="$" d="M303 296 Q367 270 393.5 240.5 Q420 211 420 162 Q420 109 388.5 75 Q357 41 303 33 L303 296 ZM265 416 Q208 436 180 467 Q151 500 151 549 Q151 601 183 635 Q213 666 265 674 L265 416 ZM306 401 L306 676 Q334 675 364 667 L379 598 Q387 561 406 544 Q421 530 441 530 Q458 530 470.5 538.5 Q483 547 488 564 Q485 607 460.5 641.5 Q436 676 396 696.5 Q356 717 306 721 L306 821 L265 821 L265 721 Q208 717 163 690.5 Q118 664 92.5 621 Q67 578 67 526 Q67 448 114 397 Q156 350 246 316 L264 310 L264 31 Q217 33 180 42 L165 111 Q157 148 140 164 Q126 178 104 178 Q71 178 56 143 Q59 97 86 61.5 Q113 26 159 6 Q205 -14 264 -14 L264 -126 L303 -126 L303 -12 Q365 -6 411 20 Q457 46 481.5 88.5 Q506 131 506 185 Q506 257 465 306 Q419 360 313 399 L306 401 Z" /><glyph glyph-name="percent" unicode="%" d="M238 -27 L749 710 L719 733 L208 -3 L238 -27 ZM152 495 Q152 604 176 652 Q194 689 228.5 689 Q263 689 281 651 Q304 604 304 495.5 Q304 387 281 339 Q263 301 228.5 301 Q194 301 176 339 Q152 387 152 495 ZM229 723 Q188 723 155 700 Q119 674 99 626 Q77 572 77 495.5 Q77 419 99 365 Q119 317 155 292 Q188 269 229 269 Q270 269 303 292 Q338 317 358 365 Q380 419 380 495.5 Q380 572 358 626 Q338 674 303 700 Q270 723 229 723 ZM638 216 Q638 325 662 372 Q681 410 715 410 Q749 410 768 372 Q791 324 791 216 Q791 108 768 60 Q749 22 715 22 Q681 22 662 60 Q638 108 638 216 ZM715 443 Q674 443 641 420 Q605 395 585 346 Q563 293 563 216.5 Q563 140 585 86 Q605 38 641 13 Q674 -10 715 -10 Q756 -10 789 13 Q824 38 844 86 Q866 140 866 216.5 Q866 293 844 346 Q824 395 789 420 Q756 443 715 443 Z" /><glyph glyph-name="ampersand" unicode="&amp;" d="M292 51 Q240 51 200 75 Q163 97 143 134.5 Q123 172 123 215 Q123 263 144 303 Q169 351 223 384 L341 245 L458 113 Q426 83 382.5 67 Q339 51 292 51 ZM295 712 Q337 712 364 683.5 Q391 655 391 607.5 Q391 560 359 518 Q331 483 275 445 L243 484 Q215 520 204 551 Q194 577 194 609 Q194 653 223.5 682.5 Q253 712 295 712 ZM740 430 L740 469 L519 469 L519 430 L607 417 Q581 286 516 182 L376 334 Q320 395 298 419 Q383 464 421 508 Q461 553 461 609 Q461 672 419 710 Q374 749 296 749 Q245 749 204.5 730 Q164 711 141 675.5 Q118 640 118 593 Q118 549 135 509 Q153 465 192 420 L200 411 Q116 370 74.5 314 Q33 258 33 185 Q33 130 62 84.5 Q91 39 142 13 Q196 -14 263 -14 Q335 -14 394 14 Q445 39 484 84 L528 35 Q554 8 582.5 -2.5 Q611 -13 654 -13 Q691 -13 735 -2 L738 34 L646 43 L542 154 Q583 214 610 276 Q638 340 656 417 L740 430 Z" /><glyph glyph-name="quotesingle" unicode="&#39;" d="M100 807 Q46 807 46 742 Q46 713 62 605 L69 558 L83 473 L116 473 L133 580 Q153 706 153 742 Q153 807 100 807 Z" /><glyph glyph-name="parenleft" unicode="(" d="M172 304 Q172 397 187 471 Q203 551 239.5 629.5 Q276 708 341 800 L318 819 Q202 709 145.5 582.5 Q89 456 89 304 Q89 152 145.5 25.5 Q202 -101 318 -210 L341 -192 Q276 -100 239.5 -21 Q203 58 187 137 Q172 212 172 304 Z" /><glyph glyph-name="parenright" unicode=")" d="M198 304 Q198 212 183 138 Q168 58 131.5 -20.5 Q95 -99 30 -192 L53 -210 Q168 -101 224.5 25.5 Q281 152 281 304 Q281 456 225 582.5 Q169 709 53 819 L30 800 Q94 708 130.5 629.5 Q167 551 183 471 Q198 396 198 304 Z" /><glyph glyph-name="asterisk" unicode="*" d="M241 819 Q225 819 215 810 Q205 801 205 782 Q205 759 220 665 L229 608 L177 634 Q162 642 134 656 Q103 673 90 678 Q70 687 58 687 Q42 687 32.5 676 Q23 665 23 649 Q23 633 35.5 624 Q48 615 75 609 Q92 606 138 599 L222 586 L181 544 L150 513 Q118 482 108 469 Q92 449 92 434 Q92 419 102 409.5 Q112 400 126 400 Q146 400 163 424 Q174 439 199 489 L241 572 L283 489 Q308 439 320 423 Q337 400 357 400 Q370 400 380.5 409.5 Q391 419 391 434.5 Q391 450 375 470 Q364 483 331 514 L301 544 L261 586 L348 599 Q393 606 410 610 Q436 615 448 624 Q460 633 460 649 Q460 665 450.5 676 Q441 687 426 687 Q415 687 393 678 Q379 672 345 655 L253 609 L269 714 Q278 768 278 782 Q278 800 267.5 809.5 Q257 819 241 819 Z" /><glyph glyph-name="plus" unicode="+" d="M549 388 L320 388 L320 631 L263 631 L263 388 L33 388 L33 335 L263 335 L263 87 L320 87 L320 335 L549 335 L549 388 Z" /><glyph glyph-name="comma" unicode="," d="M172 -37 Q155 -96 113 -139 Q77 -178 15 -209 L30 -241 Q82 -220 127 -182 Q174 -141 201 -89 Q231 -33 231 28 Q231 70 219 105 Q188 135 154 135 Q124 135 107 116 Q90 97 90 68 Q90 48 100 28.5 Q110 9 130 -5 L172 -37 Z" /><glyph glyph-name="uniAD" unicode="-­&#x2011;" d="M44 243 L299 243 L299 307 L44 307 L44 243 Z" /><glyph glyph-name="period" unicode="." d="M164 -14 Q195 -14 217 7.5 Q239 29 239 60 Q239 91 217 113 Q195 135 164 135 Q133 135 111.5 113 Q90 91 90 60.5 Q90 30 112 8 Q134 -14 164 -14 Z" /><glyph glyph-name="slash" unicode="/" d="M4 -175 L64 -175 L356 777 L298 777 L4 -175 Z" /><glyph glyph-name="zero" unicode="0" d="M142 372 Q142 554 183 637 Q216 704 276 704 Q334 704 366 637 Q406 554 406 372 Q406 184 366 98 Q334 28 276 28 Q216 28 183 98 Q142 183 142 372 ZM276 748 Q213 748 164 711 Q109 671 79 591 Q45 502 45 372 Q45 237 79 146 Q109 64 164 23 Q213 -14 275 -14 Q337 -14 386 23 Q440 65 470 146 Q504 238 504 372 Q504 502 470 591 Q440 671 386 711 Q337 748 276 748 Z" /><glyph glyph-name="one" unicode="1" d="M332 56 Q330 172 330 231 L330 575 L334 733 L319 744 L94 685 L94 647 L240 661 L240 231 Q240 172 238 56 L82 34 L82 0 L486 0 L486 34 L332 56 Z" /><glyph glyph-name="two" unicode="2" d="M124 85 Q165 126 233 197 L253 218 Q342 311 383 360 Q432 419 452.5 463 Q473 507 473 554 Q473 643 424 694 Q371 748 269 748 Q213 748 166 729.5 Q119 711 88 675 Q56 636 49 583 Q57 567 71 558 Q85 549 102 549 Q124 549 138.5 565 Q153 581 162 618 L184 698 Q216 705 243 705 Q304 705 340.5 662.5 Q377 620 377 549 Q377 485 339 415 Q303 351 220 256 Q130 153 54 68 L54 0 L504 0 L504 85 L124 85 Z" /><glyph glyph-name="three" unicode="3" d="M199 699 Q223 705 252 705 Q317 705 352.5 668.5 Q388 632 388 564 Q388 491 345 451 Q302 411 228 411 L185 411 L185 362 L237 362 Q320 362 363.5 318 Q407 274 407 196 Q407 120 363 74 Q319 28 242 28 Q208 28 179 36 L161 101 Q151 140 139 156 Q125 173 101 173 Q66 173 48 138 Q63 61 120 22 Q173 -14 258 -14 Q330 -14 385.5 13 Q441 40 472 87 Q503 134 503 194 Q503 270 460 319 Q414 371 325 387 Q399 410 439.5 458 Q480 506 480 569 Q480 622 454.5 662.5 Q429 703 382.5 725.5 Q336 748 273 748 Q194 748 140 713 Q82 676 68 607 Q82 569 119 569 Q144 569 158 584.5 Q172 600 181 635 L199 699 Z" /><glyph glyph-name="four" unicode="4" d="M85 292 L327 641 L327 292 L85 292 ZM531 292 L415 292 L415 744 L354 744 L30 281 L30 228 L327 228 L327 0 L415 0 L415 228 L531 228 L531 292 Z" /><glyph glyph-name="five" unicode="5" d="M166 647 L482 647 L482 733 L124 733 L101 391 L129 383 Q178 397 234 397 Q314 397 360 350 Q406 303 406 216 Q406 129 362.5 78.5 Q319 28 240 28 Q204 28 171 38 L153 104 Q143 144 130.5 158.5 Q118 173 94 173 Q76 173 62.5 164 Q49 155 42 138 Q58 63 110 24.5 Q162 -14 246 -14 Q323 -14 381 16 Q439 46 470.5 100.5 Q502 155 502 226.5 Q502 298 472 350 Q442 402 388 429 Q334 456 263 456 Q204 456 152 440 L166 647 Z" /><glyph glyph-name="six" unicode="6" d="M140 336 Q171 364 209 377 Q243 389 281 389 Q342 389 375 346 Q411 301 411 211.5 Q411 122 376 74 Q342 28 284 28 Q215 28 178 100 Q140 174 140 314 L140 336 ZM466 748 Q334 732 236 668 Q143 607 93.5 510.5 Q44 414 44 300 Q44 202 72.5 131.5 Q101 61 154.5 23.5 Q208 -14 281 -14 Q347 -14 398 14.5 Q449 43 476 97 Q505 152 505 228 Q505 294 480 344 Q455 394 410 421 Q365 448 306 448 Q261 448 219 429.5 Q177 411 143 376 Q157 512 236 596 Q317 683 472 719 L466 748 Z" /><glyph glyph-name="seven" unicode="7" d="M55 733 L55 647 L439 647 L147 10 L157 0 L241 0 L500 679 L500 733 L55 733 Z" /><glyph glyph-name="eight" unicode="8" d="M277 27 Q235 27 203 45.5 Q171 64 153.5 98 Q136 132 136 176 Q136 232 162 272 Q186 308 242 343 Q306 313 342.5 285.5 Q379 258 395 228 Q410 200 410 165 Q410 103 373.5 65 Q337 27 277 27 ZM155 586 Q155 621 171.5 648.5 Q188 676 215.5 690.5 Q243 705 276 705 Q309 705 336 687 Q360 670 373.5 641.5 Q387 613 387 579 Q387 524 367 485 Q347 446 299 409 Q218 448 184 495 Q155 535 155 586 ZM333 393 Q404 433 437 485 Q465 528 465 577 Q465 626 442 665 Q419 704 376.5 726 Q334 748 277 748 Q220 748 173 725.5 Q126 703 100 663 Q72 621 72 566 Q72 501 104 451 Q137 399 208 360 Q128 322 89 276 Q49 228 49 166 Q49 109 77 68.5 Q105 28 156 7 Q207 -14 274 -14 Q338 -14 389 10.5 Q440 35 469 79 Q498 123 498 180 Q498 252 458 303 Q420 351 333 393 Z" /><glyph glyph-name="nine" unicode="9" d="M277 351 Q211 351 171 393 Q128 439 128 525 Q128 582 147 625 Q164 664 194.5 684.5 Q225 705 262 705 Q325 705 361 643 Q399 577 399 448 Q399 430 397 396 Q348 351 277 351 ZM95 -20 Q231 12 324 85 Q410 152 454 251 Q495 343 495 456 Q495 545 467.5 610.5 Q440 676 388 712 Q336 748 266 748 Q198 748 145.5 719 Q93 690 63.5 636.5 Q34 583 34 514 Q34 447 63 396 Q90 347 138.5 320 Q187 293 246 293 Q334 293 392 348 Q372 226 300 145 Q225 61 87 14 L95 -20 Z" /><glyph glyph-name="colon" unicode=":" d="M164 390 Q195 390 217 411.5 Q239 433 239 464 Q239 495 217 517 Q195 539 164 539 Q133 539 111.5 517 Q90 495 90 464.5 Q90 434 112 412 Q134 390 164 390 ZM164 -14 Q195 -14 217 7.5 Q239 29 239 60 Q239 91 217 113 Q195 135 164 135 Q133 135 111.5 113 Q90 91 90 60.5 Q90 30 112 8 Q134 -14 164 -14 Z" /><glyph glyph-name="semicolon" unicode=";" d="M164 390 Q195 390 217 411.5 Q239 433 239 464 Q239 495 217 517 Q195 539 164 539 Q133 539 111.5 517 Q90 495 90 464.5 Q90 434 112 412 Q134 390 164 390 ZM172 -37 Q155 -96 113 -139 Q77 -178 15 -209 L30 -241 Q82 -220 127 -182 Q174 -141 201 -89 Q231 -33 231 28 Q231 70 219 105 Q188 135 154 135 Q124 135 107 116 Q90 97 90 68 Q90 48 100 28.5 Q110 9 130 -5 L172 -37 Z" /><glyph glyph-name="less" unicode="&lt;" d="M517 583 L489 630 L62 382 L62 341 L489 93 L517 140 L124 362 L517 583 Z" /><glyph glyph-name="equal" unicode="=" d="M549 224 L549 277 L33 277 L33 224 L549 224 ZM549 446 L549 498 L33 498 L33 446 L549 446 Z" /><glyph glyph-name="greater" unicode="&gt;" d="M92 630 L65 583 L457 362 L65 140 L92 93 L519 341 L519 382 L92 630 Z" /><glyph glyph-name="question" unicode="?" d="M163 123 Q135 123 114.5 102.5 Q94 82 94 54.5 Q94 27 114.5 6.5 Q135 -14 163 -14 Q191 -14 211 6.5 Q231 27 231 54.5 Q231 82 211 102.5 Q191 123 163 123 ZM302 610 Q330 569 330 530 Q330 500 313.5 480 Q297 460 261 447 L204 426 Q156 409 137 391.5 Q118 374 118 348 Q118 338 122 321 Q125 307 135 274 L148 229 L182 229 L182 291 Q183 310 186.5 320 Q190 330 201.5 337.5 Q213 345 238 355 L275 369 Q381 407 381 510 Q381 576 337 633 Q299 681 236 715 Q181 744 130 751 Q102 743 89 730 Q76 717 76 693 Q76 671 91 658 Q108 643 150 635 L302 610 Z" /><glyph glyph-name="uni410" unicode="a&#x391;&#x410;" d="M222 286 L334 626 L448 286 L222 286 ZM630 48 L394 738 L330 738 L97 52 L8 38 L8 0 L252 0 L252 38 L145 52 L208 243 L462 243 L526 51 L418 38 L418 0 L716 0 L716 38 L630 48 Z" /><glyph glyph-name="uni412" unicode="b&#x392;&#x412;" d="M255 44 Q253 143 253 357 L316 357 Q429 357 481.5 318 Q534 279 534 199 Q534 124 481.5 84 Q429 44 327 44 L255 44 ZM332 690 Q419 690 461 657 Q503 624 503 551 Q503 474 456.5 438 Q410 402 311 402 L253 402 Q253 596 255 690 L332 690 ZM49 733 L49 695 L151 684 Q153 588 153 395 L153 342 Q153 146 151 49 L49 38 L49 0 L348 0 Q447 0 516 30 Q578 56 609 104 Q638 147 638 200 Q638 271 588 317 Q534 368 427 383 Q515 401 561 450 Q601 494 601 555 Q601 608 573.5 648 Q546 688 493 710 Q438 733 362 733 L49 733 Z" /><glyph glyph-name="uni421" unicode="c&#x421;" d="M586 198 L559 59 Q502 32 433 32 Q354 32 293.5 70.5 Q233 109 200 183 Q166 260 166 366.5 Q166 473 203 551 Q237 624 298.5 663 Q360 702 437 702 Q495 702 549 675 L576 535 L636 535 L634 696 Q541 750 425 750 Q319 750 234 701 Q149 652 102 566 Q53 477 53 367 Q53 254 100 167 Q147 80 231.5 32 Q316 -16 425 -16 Q547 -16 644 37 L646 198 L586 198 Z" /><glyph glyph-name="D" unicode="d" d="M255 44 Q253 143 253 354 L253 392 Q253 593 255 690 L350 690 Q475 690 542.5 606.5 Q610 523 610 366 Q610 213 540.5 128.5 Q471 44 341 44 L255 44 ZM49 733 L49 695 L151 684 Q153 588 153 392 L153 354 Q153 145 151 49 L49 38 L49 0 L348 0 Q458 0 543 43 Q628 86 675 167 Q724 251 724 366.5 Q724 482 679 566 Q636 647 555.5 690 Q475 733 368 733 L49 733 Z" /><glyph glyph-name="uni415" unicode="e&#x395;&#x415;" d="M565 195 L536 48 L255 48 Q253 145 253 351 L419 351 L434 245 L479 245 L479 503 L434 503 L418 395 L253 395 Q253 590 255 685 L515 685 L544 540 L598 540 L592 733 L49 733 L49 695 L151 684 Q153 588 153 393 L153 339 Q153 145 151 49 L49 38 L49 0 L613 0 L619 195 L565 195 Z" /><glyph glyph-name="F" unicode="f" d="M516 685 L545 540 L599 540 L593 733 L49 733 L49 695 L151 684 Q153 588 153 393 L153 339 Q153 145 151 49 L49 38 L49 0 L359 0 L359 38 L255 50 Q253 146 253 351 L426 351 L440 237 L486 237 L486 503 L440 503 L426 395 L253 395 Q253 590 255 685 L516 685 Z" /><glyph glyph-name="G" unicode="g" d="M730 349 L445 349 L445 311 L561 302 Q563 166 563 97 L563 54 Q503 32 440 32 Q356 32 294.5 72 Q233 112 199.5 187.5 Q166 263 166 367 Q166 471 201 549 Q235 623 296.5 662.5 Q358 702 437 702 Q506 702 561 670 L588 534 L647 534 L645 696 Q600 724 547.5 737 Q495 750 426 750 Q318 750 232 700 Q148 651 100.5 564 Q53 477 53 366.5 Q53 256 99.5 169 Q146 82 229 34 Q315 -16 423 -16 Q487 -16 547 1 Q601 16 661 48 L661 97 Q661 205 664 305 L730 311 L730 349 Z" /><glyph glyph-name="uni41D" unicode="h&#x397;&#x41d;" d="M814 695 L814 733 L507 733 L507 695 L608 684 Q610 589 610 397 L253 397 Q253 590 255 684 L356 695 L356 733 L49 733 L49 695 L151 684 Q153 588 153 393 L153 339 Q153 145 151 49 L49 38 L49 0 L356 0 L356 38 L255 49 Q253 144 253 354 L610 354 Q610 143 608 49 L507 38 L507 0 L814 0 L814 38 L712 49 Q710 146 710 339 L710 393 Q710 589 712 684 L814 695 Z" /><glyph glyph-name="I" unicode="i&#x399;" d="M357 695 L357 733 L49 733 L49 695 L151 684 Q153 588 153 393 L153 339 Q153 145 151 49 L49 38 L49 0 L357 0 L357 38 L255 50 Q253 146 253 339 L253 393 Q253 589 255 684 L357 695 Z" /><glyph glyph-name="J" unicode="j" d="M371 733 L53 733 L53 695 L165 684 Q168 366 173 120 Q174 44 174 21 Q174 -37 162 -73 Q150 -109 125 -131 L96 -106 Q74 -88 56 -80.5 Q38 -73 18 -73 Q-9 -73 -26.5 -86 Q-44 -99 -48 -126 Q-40 -153 -12 -166 Q11 -176 46 -176 Q94 -176 137 -156.5 Q180 -137 209 -100 Q241 -61 252 -7 Q261 33 264 85 Q267 133 267 226 L267 394 Q267 589 269 684 L371 695 L371 733 Z" /><glyph glyph-name="L" unicode="l" d="M543 206 L507 47 L255 47 Q253 143 253 321 L253 394 Q253 588 255 684 L358 695 L358 733 L49 733 L49 695 L151 684 Q153 589 153 393 L153 336 Q153 146 151 49 L49 38 L49 0 L592 0 L600 206 L543 206 Z" /><glyph glyph-name="uni41C" unicode="m&#x39c;&#x41c;" d="M937 695 L937 733 L726 733 L489 125 L242 733 L42 733 L42 695 L142 683 L141 52 L42 38 L42 0 L287 0 L287 38 L192 52 L192 399 L191 433 Q187 561 186 628 L442 0 L489 0 L736 630 L735 336 Q735 144 733 49 L638 38 L638 0 L936 0 L936 38 L835 49 Q833 146 833 339 L833 393 Q833 589 835 684 L937 695 Z" /><glyph glyph-name="N" unicode="n&#x39d;" d="M761 733 L502 733 L502 695 L619 681 L621 173 L216 733 L47 733 L47 695 L125 685 L136 671 L134 51 L42 38 L42 0 L301 0 L301 38 L184 53 L182 607 L629 -7 L668 -7 L669 682 L761 695 L761 733 Z" /><glyph glyph-name="uni41E" unicode="o&#x39f;&#x41e;" d="M166 367 Q166 457 190 530 Q215 609 262 653 Q315 702 388 702 Q461 702 512 653 Q559 609 584 530 Q607 457 607 367 Q607 277 584 203 Q559 124 512 80 Q461 31 388 31 Q315 31 262 80 Q215 124 190 203 Q166 277 166 367 ZM388 750 Q301 750 225 704 Q147 657 102 573 Q53 483 53 367 Q53 247 101 157 Q146 74 224 28 Q299 -16 387 -16 Q475 -16 551 30 Q628 77 673 161 Q721 251 721 367 Q721 486 672 576 Q628 659 550 706 Q475 750 388 750 Z" /><glyph glyph-name="uni420" unicode="p&#x3a1;&#x420;" d="M325 690 Q421 690 469 645 Q515 601 515 516.5 Q515 432 470 387 Q422 337 323 337 L253 337 L253 393 Q253 593 255 690 L325 690 ZM311 293 Q417 293 489 324 Q555 352 588 404 Q618 452 618 516 Q618 616 550 673 Q478 733 343 733 L49 733 L49 695 L151 684 Q153 588 153 393 L153 339 Q153 145 151 49 L49 38 L49 0 L359 0 L359 38 L255 50 Q253 133 253 293 L311 293 Z" /><glyph glyph-name="Q" unicode="q" d="M166 367 Q166 457 190 530 Q215 609 262 653 Q315 702 388 702 Q461 702 512 653 Q559 609 584 530 Q607 457 607 367 Q607 277 584 203 Q559 124 512 80 Q461 31 388 31 Q315 31 262 80 Q215 124 190 203 Q166 277 166 367 ZM669 -168 Q616 -182 585 -182 Q514 -182 472.5 -137.5 Q431 -93 430 -13 Q510 -2 575 46 Q642 95 680 175 Q721 260 721 367 Q721 486 672 576 Q628 659 550 706 Q475 750 388 750 Q301 750 225 704 Q147 657 102 573 Q53 483 53 367 Q53 260 92 176 Q128 98 193 49 Q255 2 333 -11 Q334 -72 358 -122 Q384 -174 430 -203 Q479 -234 546 -234 Q581 -234 616.5 -224.5 Q652 -215 680 -198 L669 -168 Z" /><glyph glyph-name="R" unicode="r" d="M253 384 Q253 593 255 690 L350 690 Q435 690 477 651 Q517 614 517 542.5 Q517 471 473 429 Q427 384 342 384 L253 384 ZM614 46 L563 218 Q544 281 514 313 Q484 345 432 356 Q523 372 573 425 Q620 474 620 541 Q620 632 550.5 682.5 Q481 733 356 733 L49 733 L49 695 L151 684 Q153 588 153 393 L153 339 Q153 145 151 49 L49 38 L49 0 L357 0 L357 38 L255 50 Q253 144 253 342 L311 342 Q359 342 385 334 Q415 324 432 301 Q449 278 460 233 L505 59 Q514 21 539.5 5 Q565 -11 615.5 -11 Q666 -11 699 0 L699 38 L614 46 Z" /><glyph glyph-name="S" unicode="s" d="M274 431 Q212 455 182 488 Q150 523 150 574 Q150 635 194 670 Q235 702 303 702 Q329 702 350 697 Q371 692 392 680 L420 549 L477 549 L484 692 Q404 750 304 750 Q235 750 179.5 726 Q124 702 93 658 Q60 611 60 549 Q60 471 112 416 Q157 367 249 330 L290 313 Q366 283 396 253 Q428 221 428 169 Q428 103 381 67.5 Q334 32 253 32 Q218 32 191 38.5 Q164 45 138 59 L110 196 L54 196 L47 42 Q87 17 141 1 Q200 -16 260 -16 Q336 -16 394.5 9 Q453 34 485.5 81 Q518 128 518 192 Q518 244 498.5 283 Q479 322 435.5 353.5 Q392 385 318 414 L274 431 Z" /><glyph glyph-name="uni422" unicode="t&#x3a4;&#x422;" d="M555 685 L586 538 L639 538 L632 733 L31 733 L22 538 L77 538 L107 685 L279 685 Q281 589 281 393 L281 339 Q281 145 279 50 L166 38 L166 0 L496 0 L496 38 L383 50 Q381 146 381 339 L381 393 Q381 589 383 685 L555 685 Z" /><glyph glyph-name="U" unicode="u" d="M760 733 L498 733 L498 695 L613 680 L614 323 Q614 226 593 167 Q572 108 529 81 Q488 55 422 55 Q332 55 287 109 Q237 169 237 304 L237 394 Q237 588 239 683 L350 695 L350 733 L44 733 L44 695 L136 685 Q137 589 137 394 L137 279 Q137 128 211 53 Q279 -16 404 -16 Q524 -16 589 56 Q661 136 661 297 L662 682 L760 695 L760 733 Z" /><glyph glyph-name="V" unicode="v" d="M724 733 L473 733 L473 691 L574 681 L396 131 L204 682 L311 691 L311 733 L14 733 L14 695 L97 686 L353 -7 L399 -7 L629 683 L724 696 L724 733 Z" /><glyph glyph-name="W" unicode="w" d="M1044 733 L795 733 L795 695 L898 681 L757 154 L590 682 L702 695 L702 733 L408 733 L408 695 L518 683 L349 157 L207 683 L310 695 L310 733 L15 733 L15 695 L105 685 L303 -7 L348 -7 L529 573 L718 -7 L764 -7 L950 683 L1044 695 L1044 733 Z" /><glyph glyph-name="uni425" unicode="x&#x3a7;&#x425;" d="M602 49 L395 400 L576 682 L675 695 L675 733 L425 733 L425 695 L522 681 L373 438 L228 684 L331 695 L331 733 L22 733 L22 695 L118 685 L312 355 L118 53 L15 38 L15 0 L263 0 L263 37 L172 52 L335 317 L492 49 L390 38 L390 0 L696 0 L696 38 L602 49 Z" /><glyph glyph-name="Y" unicode="y&#x3a5;" d="M587 682 L682 695 L682 733 L434 733 L434 695 L537 682 L375 339 L215 684 L322 695 L322 733 L18 733 L18 695 L101 686 L298 286 Q298 120 296 50 L183 38 L183 0 L512 0 L512 38 L399 50 Q397 122 397 290 L587 682 Z" /><glyph glyph-name="bracketleft" unicode="[" d="M315 744 L315 783 L110 783 Q113 668 113 436 L113 173 Q113 -61 110 -174 L315 -174 L315 -135 L191 -121 Q189 -23 189 173 L189 436 Q189 634 191 730 L315 744 Z" /><glyph glyph-name="bracketright" unicode="]" d="M237 436 Q237 670 240 783 L34 783 L34 744 L158 730 Q160 632 160 436 L160 173 Q160 -25 158 -121 L34 -135 L34 -174 L240 -174 Q237 -59 237 173 L237 436 Z" /><glyph glyph-name="underscore" unicode="_" d="M44 -69 L518 -69 L518 -5 L44 -5 L44 -69 Z" /><glyph glyph-name="grave" unicode="`" d="M280 630 Q234 706 185 783 Q171 808 156.5 818.5 Q142 829 126 829 Q110 829 98.5 818.5 Q87 808 87 788 Q87 775 94 763 Q103 748 125 729 Q195 669 257 612 L280 630 Z" /><glyph glyph-name="uni430" unicode="a&#x430;" d="M357 114 Q309 76 286 64 Q260 50 232 50 Q192 50 168 70 Q143 93 143 135 Q143 170 164 196 Q190 230 256 255 Q305 273 357 288 L357 114 ZM531 65 Q520 51 510 44.5 Q500 38 487 38 Q467 38 457 54.5 Q447 71 447 108 L447 346 Q447 446 405 491 Q365 534 277 534 Q192 534 135.5 498 Q79 462 65 399 Q70 357 114 357 Q156 357 169 408 L190 483 Q225 492 252 492 Q291 492 312 481 Q336 468 346.5 439 Q357 410 357 356 L357 322 Q282 305 231 286 Q161 261 121.5 235.5 Q82 210 65 181 Q50 155 50 120 Q50 56 93 20 Q132 -14 195 -14 Q241 -14 279 8 Q310 25 359 74 Q366 34 391.5 11 Q417 -12 457 -12 Q487 -12 510 1 Q533 14 551 44 L531 65 Z" /><glyph glyph-name="b" unicode="b" d="M209 416 Q250 453 287 468 Q314 479 345 479 Q410 479 449 423 Q489 364 489 257 Q489 184 468 133 Q449 87 414 64 Q382 42 341 42 Q272 42 209 102 L209 416 ZM207 646 L210 802 L196 810 L30 764 L30 731 L119 722 L119 230 Q119 158 117 46 L35 34 L35 0 L198 -11 L207 64 Q241 21 284 2 Q319 -14 361 -14 Q426 -14 477 21.5 Q528 57 556.5 120 Q585 183 585 265 Q585 347 557 410 Q530 469 482.5 501.5 Q435 534 376 534 Q331 534 289 514 Q245 494 207 452 L207 646 Z" /><glyph glyph-name="uni441" unicode="c&#x441;" d="M474 130 Q448 91 408 69 Q368 47 321 47 Q268 47 227 73 Q186 99 164 148 Q140 199 140 268.5 Q140 338 161 388.5 Q182 439 220 465.5 Q258 492 308 492 Q337 492 367 482 L388 405 Q398 354 446 354 Q485 354 494 394 Q487 434 459.5 466 Q432 498 391 516 Q350 534 302 534 Q234 534 175.5 500.5 Q117 467 83 406 Q46 341 46 258.5 Q46 176 77 114 Q108 52 163.5 19 Q219 -14 294 -14 Q369 -14 420.5 20.5 Q472 55 496 120 L474 130 Z" /><glyph glyph-name="d" unicode="d" d="M425 104 Q394 70 365.5 56 Q337 42 300 42 Q229 42 189 93 Q145 149 145 258 Q145 333 167 385 Q187 432 223 457 Q257 479 301 479 Q330 479 359 467 Q390 453 425 421 L425 104 ZM515 44 L515 646 L518 802 L504 810 L335 764 L335 731 L427 723 L427 463 Q394 502 357 519 Q324 534 283 534 Q216 534 162.5 499.5 Q109 465 80 403 Q49 338 49 255 Q49 176 77.5 115 Q106 54 157 20 Q208 -14 274 -14 Q323 -14 362 7 Q398 26 428 64 L434 -11 L604 0 L604 34 L515 44 Z" /><glyph glyph-name="e" unicode="e&#x435;" d="M146 306 Q151 368 175 412 Q196 452 229 473 Q260 492 295 492 Q330 492 357.5 474.5 Q385 457 400.5 428 Q416 399 416 365 Q416 335 405 321 Q391 304 357 304 L146 306 ZM497 264 Q505 288 505 325 Q505 388 478.5 435.5 Q452 483 405.5 508.5 Q359 534 300 534 Q232 534 174.5 499.5 Q117 465 84 403 Q49 338 49 255 Q49 172 80 110 Q111 50 166.5 18 Q222 -14 296 -14 Q367 -14 421 20 Q472 52 503 111 L481 126 Q449 87 416 69 Q378 47 327 47 Q244 47 197 102 Q146 159 145 265 L497 264 Z" /><glyph glyph-name="f" unicode="f" d="M37 510 L37 471 L129 471 L129 230 Q129 139 126 46 L38 34 L38 0 L321 0 L321 34 L221 47 Q219 169 219 230 L219 471 L369 471 L369 519 L217 519 Q214 598 225 654 Q234 702 254 736 Q269 761 294 777 L324 751 Q343 733 362 724 Q381 715 402 715 Q429 715 445.5 728.5 Q462 742 464 763 Q456 792 427 807 Q400 821 359.5 821 Q319 821 283 807 Q241 790 208 754 Q173 717 155 663.5 Q137 610 129 522 L37 510 Z" /><glyph glyph-name="g" unicode="g" d="M260 211 Q209 211 180 250 Q151 289 151 353.5 Q151 418 181.5 457 Q212 496 263.5 496 Q315 496 344 458 Q373 420 373 357 Q373 292 342.5 251.5 Q312 211 260 211 ZM349 -15 Q405 -15 433 -41 Q457 -63 457 -103 Q457 -136 435 -162 Q413 -188 372 -203 Q328 -218 267 -218 Q200 -218 163 -192 Q124 -165 124 -112 Q124 -83 134.5 -60 Q145 -37 169 -13 Q199 -15 223 -15 L349 -15 ZM542 522 L526 533 L401 491 Q351 534 263 534 Q205 534 160 513 Q115 492 90 451.5 Q65 411 65 356 Q65 301 87 261.5 Q109 222 149 200 Q109 162 91.5 134 Q74 106 74 79 Q74 47 92.5 26 Q111 5 145 -6 Q88 -33 63.5 -62 Q39 -91 39 -127 Q39 -189 93 -224 Q152 -262 267 -262 Q353 -262 417 -234 Q475 -209 507 -165 Q537 -123 537 -74 Q537 -7 494 28 Q449 65 361 65 L216 65 Q177 65 160 79 Q146 90 146 116 Q146 135 153 152 Q160 169 176 188 Q216 174 263 174 Q320 174 365 195.5 Q410 217 435 258 Q460 299 460 355 Q460 415 431 460 L542 457 L542 522 Z" /><glyph glyph-name="h" unicode="h" d="M550 46 Q548 156 548 230 L548 334 Q548 439 512 488 Q478 534 407 534 Q355 534 302 506 Q249 478 207 431 L207 646 L210 802 L196 810 L30 764 L30 731 L119 723 L119 230 Q119 158 117 46 L35 34 L35 0 L287 0 L287 34 L211 46 Q209 158 209 230 L209 392 Q252 432 291 449 Q327 465 366 465 Q414 465 435 436 Q458 406 458 332 L458 230 Q458 156 456 46 L374 34 L374 0 L626 0 L626 34 L550 46 Z" /><glyph glyph-name="i" unicode="i" d="M168 659 Q197 659 217.5 678.5 Q238 698 238 727 Q238 756 217.5 775 Q197 794 167.5 794 Q138 794 117.5 775.5 Q97 757 97 727.5 Q97 698 117.5 678.5 Q138 659 168 659 ZM216 46 Q214 158 214 230 L214 377 L216 523 L201 533 L33 474 L33 441 L122 433 Q125 361 125 288 L125 230 Q125 158 123 46 L39 34 L39 0 L291 0 L291 34 L216 46 Z" /><glyph glyph-name="j" unicode="j" d="M33 474 L33 441 L119 433 Q123 372 123 287 L123 110 Q123 -19 118 -86 Q113 -160 99 -194 Q90 -213 79 -224 L53 -203 Q32 -186 13.5 -178 Q-5 -170 -26 -170 Q-50 -170 -66.5 -181 Q-83 -192 -90 -214 Q-88 -237 -65 -254 Q-37 -273 8.5 -273 Q54 -273 87 -257 Q118 -242 145.5 -211 Q173 -180 186.5 -141 Q200 -102 205 -40 Q209 13 209 112 L209 377 L212 523 L198 533 L33 474 ZM166 794 Q136 794 116 775.5 Q96 757 96 727.5 Q96 698 116.5 678.5 Q137 659 166.5 659 Q196 659 216.5 678.5 Q237 698 237 727 Q237 756 216.5 775 Q196 794 166 794 Z" /><glyph glyph-name="k" unicode="k" d="M530 44 L345 342 L471 469 L573 483 L573 519 L321 519 L321 483 L407 465 L209 261 L209 646 L214 802 L199 810 L30 764 L30 731 L119 723 L119 230 Q119 166 117 46 L31 34 L31 0 L297 0 L297 34 L211 46 Q209 148 209 205 L282 279 L452 0 L601 0 L601 34 L530 44 Z" /><glyph glyph-name="l" unicode="l" d="M211 46 Q209 166 209 230 L209 646 L214 802 L199 810 L30 764 L30 731 L119 723 L119 230 Q119 166 117 46 L30 34 L30 0 L299 0 L299 34 L211 46 Z" /><glyph glyph-name="m" unicode="m" d="M876 46 Q874 156 874 230 L874 344 Q874 443 837 490 Q803 534 734 534 Q680 534 631 509 Q579 482 536 431 Q522 484 490 509 Q458 534 406 534 Q357 534 306.5 507.5 Q256 481 215 434 L206 523 L191 533 L37 473 L37 440 L124 431 Q127 387 127 287 L127 230 Q127 158 125 46 L44 34 L44 0 L296 0 L296 34 L220 46 Q218 158 218 230 L218 392 Q260 430 295 447 Q330 464 367 464 Q415 464 436 434 Q457 404 457 331 L457 230 Q457 156 455 46 L372 34 L372 0 L624 0 L624 34 L549 46 Q546 129 546 230 L546 335 Q546 366 543 391 Q585 430 623 447 Q658 464 693 464 Q726 464 746 452 Q766 440 775.5 411.5 Q785 383 785 333 L785 230 Q785 156 783 46 L702 34 L702 0 L953 0 L953 34 L876 46 Z" /><glyph glyph-name="n" unicode="n" d="M554 46 Q552 156 552 230 L552 335 Q552 439 517.5 486.5 Q483 534 412 534 Q362 534 309.5 507 Q257 480 215 433 L206 523 L191 533 L37 473 L37 440 L124 431 Q127 365 127 287 L127 230 Q127 158 125 46 L44 34 L44 0 L296 0 L296 34 L220 46 Q218 158 218 230 L218 392 Q260 430 297 447.5 Q334 465 371 465 Q420 465 441 435 Q462 405 462 332 L462 230 Q462 156 460 46 L379 34 L379 0 L631 0 L631 34 L554 46 Z" /><glyph glyph-name="uni43E" unicode="o&#x43e;" d="M300 -14 Q366 -14 422 16 Q481 48 515 107 Q552 171 552 258 Q552 345 515 410 Q481 470 422 503 Q366 534 300 534 Q234 534 178 503 Q119 470 86 410 Q49 345 49 258.5 Q49 172 85 107 Q119 49 178 17 Q234 -14 300 -14 ZM300 28 Q227 28 188 87 Q149 146 149 258.5 Q149 371 188.5 431.5 Q228 492 300 492 Q372 492 411.5 431.5 Q451 371 451 258.5 Q451 146 411.5 87 Q372 28 300 28 Z" /><glyph glyph-name="uni440" unicode="p&#x440;" d="M219 419 Q260 453 295 468 Q324 479 353 479 Q417 479 455 422 Q494 363 494 255.5 Q494 148 450 92 Q410 42 342 42 Q310 42 280 54.5 Q250 67 219 96 L219 419 ZM207 523 L192 533 L38 473 L38 440 L126 431 Q129 365 129 287 L129 -31 Q129 -91 127 -215 L38 -229 L38 -262 L318 -262 L318 -229 L218 -214 Q216 -90 216 -28 L216 59 Q249 19 289 1 Q324 -14 365 -14 Q429 -14 480 20 Q531 54 559 116 Q589 180 589 262.5 Q589 345 561 408 Q534 468 487 501 Q440 534 381 534 Q288 534 214 453 L207 523 Z" /><glyph glyph-name="q" unicode="q" d="M428 107 Q396 71 366 56.5 Q336 42 300 42 Q229 42 189 92 Q145 147 145 256 Q145 331 167 384 Q186 431 222 456 Q256 479 300 479 Q331 479 360 466 Q391 451 428 417 L428 107 ZM520 -215 Q518 -93 518 -31 L518 374 L521 523 L507 533 L432 456 Q369 534 279 534 Q214 534 161.5 499 Q109 464 80 401 Q49 336 49 254 Q49 175 77 114 Q105 53 155.5 19.5 Q206 -14 272 -14 Q320 -14 358.5 6.5 Q397 27 430 69 L430 -31 Q430 -91 428 -215 L330 -229 L330 -262 L608 -262 L608 -229 L520 -215 Z" /><glyph glyph-name="r" unicode="r" d="M206 523 L191 533 L37 473 L37 440 L124 431 Q127 365 127 287 L127 230 Q127 156 125 46 L45 34 L45 0 L311 0 L311 34 L220 47 Q218 159 218 230 L218 316 Q234 367 256.5 401.5 Q279 436 313 461 L326 449 Q343 434 358 426 Q375 418 394 418 Q456 418 456 493 Q446 512 424.5 523 Q403 534 377 534 Q331 534 287.5 496 Q244 458 217 391 L206 523 Z" /><glyph glyph-name="s" unicode="s" d="M245 314 Q187 335 166 354 Q143 375 143 411.5 Q143 448 171 469.5 Q199 491 250 491 Q289 491 329 471 L350 378 L399 378 L403 489 Q365 512 331 522 Q293 534 250 534 Q191 534 146 512 Q104 492 81.5 457 Q59 422 59 381 Q59 328 96 290 Q128 257 193 233 L244 216 Q299 195 322.5 173 Q346 151 346 116 Q346 75 315 53 Q282 28 220 28 Q169 28 130 46 L106 147 L54 147 L56 27 Q98 6 135 -4 Q175 -14 221 -14 Q288 -14 338 8 Q384 28 408.5 63.5 Q433 99 433 142 Q433 195 399 233 Q362 272 283 300 L245 314 Z" /><glyph glyph-name="t" unicode="t" d="M332 67 Q309 50 292.5 43 Q276 36 257 36 Q194 36 194 118 L194 471 L342 471 L342 519 L195 519 L201 670 L138 670 L109 522 L11 510 L11 471 L104 471 L104 205 L103 114 Q103 49 135 17.5 Q167 -14 227 -14 Q268 -14 300.5 0.5 Q333 15 354 42 L332 67 Z" /><glyph glyph-name="u" unicode="u" d="M529 45 L529 361 L532 516 L522 527 L364 510 L364 477 L442 462 L439 129 Q367 57 286 57 Q239 57 218 86 Q195 118 195 189 L195 361 L200 516 L189 527 L28 511 L28 479 L107 463 L104 184 Q103 79 142 30 Q177 -14 247 -14 Q300 -14 350.5 12.5 Q401 39 442 90 L452 -9 L604 0 L604 33 L529 45 Z" /><glyph glyph-name="v" unicode="v" d="M543 519 L341 519 L341 483 L431 469 L304 103 L165 472 L260 483 L260 519 L-2 519 L-2 483 L60 474 L257 -7 L302 -7 L481 469 L543 483 L543 519 Z" /><glyph glyph-name="w" unicode="w" d="M829 519 L629 519 L629 483 L715 469 L609 118 L477 469 L561 483 L561 519 L323 519 L323 483 L407 470 L280 114 L161 471 L247 483 L247 519 L-1 519 L-1 483 L62 473 L238 -7 L277 -7 L423 393 Q463 266 568 -7 L607 -7 L767 470 L829 483 L829 519 Z" /><glyph glyph-name="uni445" unicode="x&#x445;" d="M487 45 L327 275 L487 472 L551 483 L551 519 L349 519 L349 483 L425 470 L304 309 L191 471 L262 483 L262 519 L19 519 L19 483 L90 472 L242 249 L80 45 L10 34 L10 0 L224 0 L224 34 L139 47 L266 215 L383 46 L300 34 L300 0 L563 0 L563 34 L487 45 Z" /><glyph glyph-name="uni443" unicode="y&#x443;" d="M561 519 L349 519 L349 485 L448 474 L310 85 L166 475 L261 485 L261 519 L1 519 L1 485 L63 477 L267 -32 L262 -44 Q241 -98 218 -136 Q190 -180 156 -207 L148 -199 Q125 -177 109 -169 Q90 -159 68 -159 Q42 -159 24 -170 Q3 -182 -2 -204 Q-2 -234 27 -253.5 Q56 -273 96 -273 Q157 -273 209 -212 Q264 -149 316 -11 L500 475 L561 485 L561 519 Z" /><glyph glyph-name="z" unicode="z" d="M423 176 L388 41 L141 41 L456 485 L456 519 L49 519 L41 359 L89 355 L121 479 L352 479 L35 35 L35 0 L461 0 L472 176 L423 176 Z" /><glyph glyph-name="braceleft" unicode="{" d="M344 745 L344 783 L297 783 Q215 783 171.5 749 Q128 715 128 649 Q128 616 137 579 Q142 556 155 515 Q165 483 169 468 Q175 444 175 426 Q175 383 145 358 Q112 331 44 324 L44 285 Q112 278 145 251 Q175 226 175 183 Q175 165 169 141 Q165 126 155 94 Q142 53 137 30 Q128 -8 128 -41 Q128 -106 171.5 -140 Q215 -174 297 -174 L344 -174 L344 -136 L313 -132 Q253 -127 229 -107 Q205 -87 205 -38 Q205 -7 210 31 Q213 53 221 94 Q231 150 231 171 Q231 284 123 305 Q180 315 207 351 Q231 384 231 438 Q231 459 221 515 Q213 556 210 578 Q205 616 205 647 Q205 696 229 716 Q253 736 313 741 L344 745 Z" /><glyph glyph-name="bar" unicode="|" d="M108 -274 L166 -274 L166 821 L108 821 L108 -274 Z" /><glyph glyph-name="braceright" unicode="}" d="M333 324 Q265 331 232 358 Q201 383 201 426 Q201 444 207 468 Q211 483 221 515 Q235 556 240 579 Q249 616 249 649 Q249 715 205.5 749 Q162 783 80 783 L33 783 L33 745 L64 741 Q124 736 148 716 Q172 696 172 647 Q172 616 167 578 Q164 556 156 515 Q146 459 146 438 Q146 384 170 351 Q197 315 254 305 Q146 284 146 171 Q146 150 156 94 Q164 53 167 31 Q172 -7 172 -38 Q172 -86 148 -106.5 Q124 -127 64 -132 L33 -136 L33 -174 L80 -174 Q161 -174 205 -140 Q249 -106 249 -41 Q249 -8 240 30 Q235 53 221 94 Q211 126 207 141 Q201 165 201 183 Q201 226 232 251 Q265 278 333 285 L333 324 Z" /><glyph glyph-name="asciitilde" unicode="~" d="M310 396 Q275 428 249 441 Q218 457 184 457 Q126 457 93 419 Q60 381 55 309 L103 301 Q110 356 131 382 Q149 405 178 405 Q202 405 224.5 394 Q247 383 274 358 Q311 326 335 314 Q366 298 400 298 Q459 298 491 336 Q523 374 528 447 L481 454 Q474 399 453 373 Q435 350 406 350 Q382 350 359.5 361.5 Q337 373 310 396 Z" /><glyph glyph-name="copyright" unicode="©" d="M504 196 Q473 184 440 184 Q373 184 333 232.5 Q293 281 293 369 Q293 428 313 472 Q332 513 365.5 534.5 Q399 556 441 556 Q472 556 499 545 L515 457 L558 457 L555 562 Q525 580 497 586.5 Q469 593 431 593 Q371 593 322 564.5 Q273 536 245 484.5 Q217 433 217 368.5 Q217 304 244 253 Q271 202 319.5 174 Q368 146 431 146 Q504 146 561 176 L564 281 L520 281 L504 196 ZM414 23 Q320 23 244.5 65 Q169 107 127 184 Q82 264 82 368 Q82 472 127 552 Q169 628 244.5 669.5 Q320 711 413.5 711 Q507 711 582.5 669 Q658 627 701 551 Q745 472 745 368.5 Q745 265 701 185 Q658 108 582.5 65.5 Q507 23 414 23 ZM414 750 Q308 750 221 704 Q134 658 85 574 Q33 485 33 369 Q33 253 85 163 Q134 78 221 31 Q308 -16 414 -16 Q520 -16 606.5 31 Q693 78 742 163 Q794 253 794 369 Q794 485 742 574 Q693 658 606.5 704 Q520 750 414 750 Z" /><glyph glyph-name="multiply" unicode="×" d="M500 336 L774 62 L806 94 L532 368 L807 643 L775 675 L500 400 L225 675 L193 643 L468 368 L194 94 L226 62 L500 336 Z" /><glyph glyph-name="uni2012" unicode="&#x2012;&#x2013;" d="M44 243 L518 243 L518 307 L44 307 L44 243 Z" /><glyph glyph-name="quotedblleft" unicode="&#x201c;" d="M697 858 Q626 828 590 766 Q560 716 560 658 Q560 614 580 590 Q600 566 634 566 Q664 566 682.5 583 Q701 600 701 627 Q701 662 675 684 Q655 701 613 712 Q616 742 639 772 Q666 808 713 831 L697 858 ZM908 858 Q837 828 801 766 Q771 716 771 658 Q771 614 791 590 Q811 566 845 566 Q875 566 893.5 583 Q912 600 912 627 Q912 662 886 684 Q866 701 824 712 Q828 743 851 772 Q878 808 925 831 L908 858 Z" /><glyph glyph-name="quotedblright" unicode="&#x201d;" d="M303 566 Q374 596 411 657 Q440 708 440 766 Q440 810 420 834 Q400 858 366 858 Q336 858 317.5 840.5 Q299 823 299 796 Q299 761 325 740 Q345 723 387 712 Q384 682 361 652 Q334 615 287 592 L303 566 ZM92 566 Q163 596 200 657 Q229 708 229 766 Q229 810 209 834 Q189 858 155 858 Q125 858 106.5 840.5 Q88 823 88 796 Q88 761 114 740 Q134 723 176 712 Q172 681 150 652 Q122 615 75 592 L92 566 Z" /><glyph glyph-name="uni2EC6" unicode="&#x2ec6;&#x89d2;" d="M556 224 L556 371 L767 371 L767 224 L556 224 ZM269 224 Q279 283 279 362 L279 371 L480 371 L480 224 L269 224 ZM590 701 Q572 669 548 633.5 Q524 598 501 571 L293 571 L242 591 Q302 644 349 701 L590 701 ZM279 541 L480 541 L480 400 L279 400 L279 541 ZM767 541 L767 400 L556 400 L556 541 L767 541 ZM796 616 L758 571 L527 571 Q589 607 687 691 Q706 693 712 694 Q722 697 727 702 L643 778 L595 731 L373 731 Q399 765 419 796 Q438 794 446 796.5 Q454 799 457 808 L336 843 Q294 741 213 640 Q131 536 42 474 L52 462 Q129 499 200 555 L200 362 Q200 273 190 209 Q177 127 146 63 Q110 -11 47 -69 L57 -80 Q147 -28 200 47 Q244 111 263 195 L480 195 L480 -50 L492 -50 Q509 -50 525 -45 Q539 -42 547.5 -36 Q556 -30 556 -27 L556 195 L767 195 L767 38 Q767 26 762 21.5 Q757 17 743.5 17 Q730 17 674 21 L620 24 L620 9 Q654 4 675 -4 Q694 -11 707 -21 Q716 -29 721 -45 Q725 -58 728 -79 Q779 -74 806 -60 Q830 -47 840 -23 Q847 -5 847 29 L847 530 Q875 535 885 548 L796 616 Z" /><glyph glyph-name="uni2ED3" unicode="&#x2ed3;&#x957f;" d="M927 401 Q950 401 954 417 Q930 440 890 472 L855 500 L800 431 L326 431 L326 483 Q454 529 583 599 Q705 664 787 726 Q802 720 811 721 Q820 722 826 729 L731 803 Q666 734 553.5 652 Q441 570 326 507 L326 797 Q362 801 365 820 L243 836 L243 431 L51 431 L60 401 L243 401 L243 69 Q243 52 235 42.5 Q227 33 199 17 L266 -84 Q279 -75 285 -63 Q445 20 576 101 L573 114 Q416 65 326 40 L326 401 L474 401 Q524 234 631 119 Q732 11 886 -54 Q896 -26 915.5 -8.5 Q935 9 962 12 L964 24 Q800 71 682 162 Q552 261 495 401 L927 401 Z" /><glyph glyph-name="uni2EDA" unicode="&#x2eda;&#x9875;" d="M457 489 Q457 478 457 458 Q456 357 453 312 Q447 240 429 190 Q408 131 366 87 Q320 39 243 2 Q162 -37 40 -68 L48 -85 Q189 -58 283 -21 Q373 15 428 62 Q478 106 503 165 Q525 215 534 288 Q539 333 541 433 L542 451 Q571 455 575 478 L457 489 ZM516 140 Q603 102 706 38 Q812 -29 867 -80 Q899 -86 914.5 -70 Q930 -54 919 -26 Q907 5 866 36 Q818 73 739 102 Q647 135 523 154 L516 140 ZM801 770 L53 770 L61 741 L426 741 Q416 640 407 588 L281 588 L193 626 L193 123 L206 123 Q221 123 237.5 128 Q254 133 264.5 140 Q275 147 275 152 L275 559 L721 559 L721 143 L735 143 Q755 143 779 152.5 Q803 162 804 168 L804 548 Q830 554 840 566 L753 632 L712 588 L439 588 Q478 645 524 741 L925 741 Q949 741 953 757 Q929 778 889 810 L854 837 L801 770 Z" /><glyph glyph-name="uni2EDC" unicode="&#x2edc;&#x98de;" d="M942 168 L929 170 Q909 83 892 45 Q887 32 878 28.5 Q869 25 848 28 Q745 44 682 99 Q624 150 595 240 Q570 320 565 443 Q645 399 720 339 Q802 274 839 219 Q868 209 886 222 Q904 235 902 262 Q899 291 874 322 Q844 359 790 390 Q728 426 640 450 Q709 498 778 552 Q853 610 895 648 Q923 638 932 652 L838 729 Q796 672 734 596 Q668 513 616 456 L564 468 Q560 562 567 714 Q598 718 612 732 L519 813 L471 761 L60 761 L69 732 L482 732 Q478 528 485 422 Q493 275 524 183 Q559 79 629 19 Q704 -44 828 -66 Q891 -79 924 -75 Q960 -71 972 -47 Q978 -34 970.5 -20 Q963 -6 937 14 L942 168 Z" /><glyph glyph-name="uni2EDD" unicode="&#x2edd;&#x2fb7;&#x98df;" d="M401 175 Q514 136 639 68 Q776 -6 841 -70 Q872 -75 884 -59 Q896 -43 881 -15 Q865 17 822 49 Q771 86 692 117 Q793 150 858 185 Q873 181 881 183 Q889 185 896 192 L800 257 Q775 229 736 194 Q694 158 655 131 Q546 168 408 190 L401 175 ZM688 504 L688 407 L322 407 L322 504 L688 504 ZM322 278 L322 378 L688 378 L688 278 L322 278 ZM451 841 Q426 786 358 715 Q294 649 208.5 585.5 Q123 522 43 482 L49 467 Q151 505 244 559 L244 57 Q244 44 235.5 35 Q227 26 196 7 L247 -75 Q260 -67 266 -57 Q378 -14 544 56 L563 64 L559 79 L524 72 Q379 43 322 33 L322 248 L688 248 L688 219 L702 219 Q721 219 744.5 229 Q768 239 769 246 L769 494 Q781 496 790.5 501 Q800 506 804 511 L720 575 L679 533 L334 533 L256 565 Q345 616 422 678 L415 672 Q441 648 464 614 Q489 577 496 548 Q517 533 536 536.5 Q555 540 563.5 558 Q572 576 563 598 Q552 623 521 643 Q484 667 424 680 Q482 725 528 778 Q580 695 683 619 Q779 549 896 501 Q901 526 919.5 548 Q938 570 965 576 L966 591 Q836 625 732 672 Q610 726 545 789 Q566 791 575.5 795.5 Q585 800 588 809 L451 841 Z" /><glyph glyph-name="uni2EF0" unicode="&#x2ef0;&#x9f99;" d="M560 810 Q602 776 638 735 Q681 686 697 649 Q721 636 740 644 Q759 652 762.5 674.5 Q766 697 750 723 Q731 753 690 777 Q642 804 570 819 L560 810 ZM932 184 L919 184 Q893 57 881 32 Q877 25 872.5 22 Q868 19 859 18 Q843 16 768 16 L669 16 Q640 16 631 22 Q622 28 622 44 L622 166 Q748 282 842 450 Q860 447 869 449.5 Q878 452 883 461 L773 514 Q715 379 622 258 L622 564 L920 564 Q944 564 948 580 Q923 602 881 635 L844 664 L788 593 L445 593 Q449 661 451 800 Q469 803 477 809.5 Q485 816 487 828 L365 840 Q365 673 361 593 L48 593 L56 564 L360 564 Q351 433 323 335 Q290 218 224 124 Q150 20 30 -63 L44 -79 Q191 -1 281 106 Q360 200 400 324 Q432 425 443 564 L543 564 L543 168 Q440 65 300 -20 L310 -34 Q433 20 543 100 L543 26 Q543 -6 552.5 -23.5 Q562 -41 586 -48.5 Q610 -56 655 -56 L764 -56 Q848 -56 891.5 -51.5 Q935 -47 951.5 -37 Q968 -27 968 -9 Q968 3 961 11.5 Q954 20 935 27 L932 184 Z" /><glyph glyph-name="uni2F00" unicode="&#x2f00;&#x4e00;" d="M44 428 L54 395 L931 395 Q958 395 962 411 Q932 439 881 483 L836 521 L767 428 L44 428 Z" /><glyph glyph-name="uni2F06" unicode="&#x2f06;&#x3193;&#x4e8c;" d="M48 95 L56 66 L930 66 Q953 66 957 82 Q930 106 884 144 L843 177 L780 95 L48 95 ZM143 653 L151 625 L831 625 Q854 625 858 641 Q832 664 787 700 L747 732 L686 653 L143 653 Z" /><glyph glyph-name="uni2F08" unicode="&#x2f08;&#x319f;&#x4eba;" d="M425 822 Q425 818 425 810 Q425 688 421 626 Q416 523 399 442 Q379 345 341 264 Q297 172 227 94 Q151 8 40 -64 L53 -80 Q223 7 326 124 Q415 226 459 357 Q493 461 504 603 Q520 440 556 323 Q598 191 674 95 Q755 -8 883 -78 Q900 -14 966 -5 L968 6 Q801 79 701 191 Q608 295 563 448 Q523 581 511 781 Q529 783 537 790 Q545 797 547 809 L425 822 Z" /><glyph glyph-name="uni2F09" unicode="&#x2f09;&#x513f;" d="M281 828 L281 444 Q281 329 261 244 Q238 145 185 71 Q128 -11 30 -70 L40 -83 Q164 -32 238 51 Q305 126 335 232 Q361 322 362 444 L362 788 Q380 791 387.5 798 Q395 805 397 816 L281 828 ZM593 830 L593 53 Q593 20 602 1 Q611 -18 633.5 -26 Q656 -34 697 -34 L785 -34 Q856 -34 895 -28.5 Q934 -23 949.5 -12 Q965 -1 965 18 Q965 31 958.5 39 Q952 47 934 55 L930 228 L918 228 L915 214 Q902 147 896 120 Q886 74 880 62 Q876 54 871.5 51 Q867 48 859 48 Q843 45 788 45 L715 45 Q690 45 682 52 Q674 59 674 77 L674 789 Q707 794 710 817 L593 830 Z" /><glyph glyph-name="uni2F0A" unicode="&#x2f0a;&#x5165;" d="M475 676 Q431 442 312 244 Q197 52 33 -69 L46 -82 Q215 15 339 165 Q460 312 517 482 Q569 291 656 151 Q749 0 875 -81 Q885 -50 912 -29 Q939 -8 975 -6 L979 8 Q857 65 759 171 Q667 272 604 410 Q543 543 515 698 Q506 734 454 775 Q416 805 345 844 Q334 830 301 772 L300 770 Q376 748 411 734 Q468 711 472 692 L475 676 Z" /><glyph glyph-name="uni2F11" unicode="&#x2f11;&#x5200;" d="M831 771 L781 719 L84 719 L93 689 L397 689 Q395 572 386 498 Q374 391 342 304 Q304 201 235 115 Q158 18 39 -63 L52 -79 Q193 -5 284 89 Q367 174 413 279 Q453 368 471 482 Q483 561 489 689 L792 689 Q785 406 772 257 Q756 77 727 50 Q718 41 709 38 Q700 35 684 35 Q660 35 534 47 L518 48 L517 32 Q558 25 589 15 Q624 5 637 -6 Q660 -26 658 -69 Q705 -69 737.5 -56 Q770 -43 795 -15 Q833 30 852 214 Q869 372 875 676 Q905 680 919 694 L831 771 Z" /><glyph glyph-name="uni2F12" unicode="&#x2f12;&#x529b;&#xf98a;" d="M819 636 L771 585 L501 585 Q505 654 507 799 Q525 801 533 808 Q541 815 543 827 L418 840 L418 802 Q418 654 414 585 L92 585 L101 555 L413 555 Q404 421 373 323 Q337 207 263 116 Q181 15 45 -64 L56 -81 Q221 -6 321 97 Q409 189 452 311 Q488 412 499 555 L781 555 Q765 86 715 41 Q707 33 698.5 30.5 Q690 28 674 28 Q655 28 600.5 32 Q546 36 503 41 L502 24 Q540 18 574.5 7.5 Q609 -3 624 -13 Q648 -31 646 -73 Q691 -73 723.5 -62 Q756 -51 779 -26 Q816 13 837 166 Q856 303 863 543 Q881 546 890.5 549.5 Q900 553 907 560 L819 636 Z" /><glyph glyph-name="uni2F17" unicode="&#x2f17;&#x5341;" d="M795 472 L541 472 L541 793 Q561 797 569.5 804.5 Q578 812 580 824 L455 837 L455 472 L42 472 L51 443 L455 443 L455 -78 L471 -78 Q487 -78 504 -72 Q519 -67 530 -59 Q541 -51 541 -46 L541 443 L935 443 Q957 443 961 458 Q937 482 893 518 L854 549 L795 472 Z" /><glyph glyph-name="uni2F20" unicode="&#x2f20;&#x58eb;" d="M799 484 L543 484 L543 785 Q560 788 568 795 Q576 802 578 814 L456 826 L456 484 L43 484 L51 455 L456 455 L456 -1 L98 -1 L107 -31 L879 -31 Q903 -31 907 -15 Q882 8 840 41 L802 70 L746 -1 L543 -1 L543 455 L932 455 Q955 455 959 471 Q935 494 893 527 L855 556 L799 484 Z" /><glyph glyph-name="uni2F24" unicode="&#x2f24;&#x5927;" d="M935 516 Q945 516 952.5 520 Q960 524 961 532 Q936 554 892 589 L852 619 L793 545 L523 545 Q528 593 530 655 Q532 692 533 768 L534 798 Q550 800 558 807 Q566 814 568 826 L444 839 L444 808 Q444 718 443 674 Q442 601 437 545 L48 545 L55 516 L434 516 Q420 394 384 301 Q342 193 263 107 Q176 12 37 -65 L49 -81 Q215 -10 319 85 Q412 171 461 283 Q503 378 519 507 Q536 392 570 299 Q612 182 684 92 Q767 -12 891 -82 Q898 -49 918 -32 Q938 -15 972 -10 L973 2 Q770 92 659 237 Q567 357 537 516 L935 516 Z" /><glyph glyph-name="uni2F26" unicode="&#x2f26;&#x5b50;" d="M794 400 L546 400 L546 530 Q577 534 580 555 L560 557 Q628 586 706 632 Q771 670 831 712 Q848 713 857.5 715.5 Q867 718 874 724 L784 804 L730 753 L146 753 L154 724 L716 724 Q678 683 630 640 Q577 593 530 560 L462 567 L462 400 L44 400 L53 371 L462 371 L462 39 Q462 26 456 20.5 Q450 15 434 15 Q416 15 333 21 L254 26 L254 10 Q301 4 329 -3.5 Q357 -11 373 -22 Q387 -31 394 -45 Q401 -59 405 -80 Q465 -75 497 -60 Q526 -46 537 -22 Q546 -2 546 33 L546 371 L933 371 Q943 371 950.5 375 Q958 379 959 387 Q934 410 891 444 L852 473 L794 400 Z" /><glyph glyph-name="uni2F2D" unicode="&#x2f2d;&#x5c71;" d="M806 616 L806 46 L538 46 L538 779 Q556 782 564.5 789 Q573 796 575 807 L454 820 L454 46 L191 46 L191 572 Q209 575 218 582 Q227 589 229 601 L108 614 L108 55 Q86 44 71 29 L167 -25 L198 17 L806 17 L806 -80 L821 -80 Q836 -80 852 -75 Q868 -70 878.5 -63.5 Q889 -57 889 -52 L889 575 Q907 578 915.5 585 Q924 592 926 603 L806 616 Z" /><glyph glyph-name="uni2F30" unicode="&#x2f30;&#x5df1;" d="M899 231 L887 231 Q854 96 838 62 Q827 42 801 36 Q780 30 725 30 L313 30 Q264 30 243 39 Q218 48 218 74 L218 430 L717 430 L717 345 L730 345 Q749 345 773.5 353.5 Q798 362 799 368 L799 717 Q816 720 828.5 726 Q841 732 846 739 L749 812 L706 763 L126 763 L135 735 L717 735 L717 459 L231 459 L137 497 L137 78 Q137 29 156.5 1.5 Q176 -26 217 -37 Q254 -47 319 -47 L733 -47 Q818 -47 867 -39 Q913 -32 933 -17 Q951 -4 951 17 Q951 30 941 37 Q931 44 900 52 L899 231 Z" /><glyph glyph-name="uni2F32" unicode="&#x2f32;&#x5e72;" d="M798 433 L541 433 L541 718 L882 718 Q893 718 900.5 722 Q908 726 909 734 Q884 756 841 790 L803 820 L746 747 L96 747 L104 718 L456 718 L456 433 L40 433 L49 404 L456 404 L456 -83 L470 -83 Q490 -83 508 -78 Q522 -73 531.5 -67 Q541 -61 541 -57 L541 404 L937 404 Q960 404 964 420 Q938 443 895 477 L856 507 L798 433 Z" /><glyph glyph-name="uni2F34" unicode="&#x2f34;&#x5e7f;" d="M440 836 Q470 806 496 769 Q526 725 536 692 Q559 677 579.5 683 Q600 689 607 709.5 Q614 730 603 754 Q589 782 555 804 Q514 830 450 843 L440 836 ZM796 679 L236 679 L136 718 L136 422 Q136 318 130 249 Q122 154 100 80 Q74 -7 28 -74 L42 -84 Q120 -20 163 73 Q198 149 212 249 Q221 319 221 422 L221 650 L927 650 Q951 650 954 666 Q930 688 889 722 L853 752 L796 679 Z" /><glyph glyph-name="uni2F3C" unicode="&#x2f3c;&#x5fc3;" d="M156 536 Q156 470 142 404 Q129 343 106 293 Q83 243 57 217 Q42 198 39 179 Q36 160 50 146 Q62 135 79 135.5 Q96 136 113.5 147.5 Q131 159 144 179 Q167 211 181 258 Q197 313 197 378 Q197 454 173 537 L156 536 ZM761 520 L750 511 Q807 444 845 337 Q871 261 885 171 Q899 155 913 152.5 Q927 150 938.5 160 Q950 170 956 190 Q962 210 961 236 Q960 265 949 297 Q937 332 915 367 Q890 406 854 443 Q814 484 761 520 ZM293 661 L293 57 Q293 19 305 -0.5 Q317 -20 345 -28 Q373 -36 426 -36 L567 -36 Q670 -36 724 -30.5 Q778 -25 799 -13 Q818 -2 818 20 Q818 33 810.5 41 Q803 49 781 56 L779 229 L766 229 Q736 88 723 63 Q718 54 712.5 50.5 Q707 47 695 46 Q667 43 571 43 L436 43 Q410 43 396.5 46.5 Q383 50 378 57 Q373 64 373 78 L373 622 Q405 626 407 649 L293 661 ZM435 831 L423 824 Q474 766 516 697 Q563 618 578 558 Q605 538 626.5 546 Q648 554 653 583 Q658 615 640 654 Q619 699 573 742 Q518 791 435 831 Z" /><glyph glyph-name="uni2F3E" unicode="&#x2f3e;&#x6237;" d="M437 842 Q462 811 484 773 Q510 728 519 695 Q541 679 561 684.5 Q581 690 589.5 710 Q598 730 588 754 Q576 782 545 805 Q507 832 447 848 L437 842 ZM262 395 Q262 397 262 401 Q264 461 264 489 L264 648 L780 648 L780 395 L262 395 ZM812 722 L771 677 L278 677 L185 715 L185 488 Q185 380 176 299 Q163 194 134 108 Q99 8 39 -71 L52 -80 Q155 4 208 133 Q248 233 260 366 L780 366 L780 303 L793 303 Q813 303 836.5 312 Q860 321 861 327 L861 635 Q874 637 884.5 642.5 Q895 648 900 654 L812 722 Z" /><glyph glyph-name="uni2F3F" unicode="&#x2f3f;&#x624b;" d="M812 300 L548 300 L548 493 L890 493 Q901 493 908.5 497 Q916 501 917 509 Q893 531 852 563 L816 591 L761 523 L548 523 L548 712 Q680 728 808 756 Q828 748 843 748 Q858 748 865 754 L775 840 Q662 796 467 755.5 Q272 715 91 698 L94 680 Q260 680 461 702 L461 523 L93 523 L101 493 L461 493 L461 300 L30 300 L39 271 L461 271 L461 42 Q461 29 455 23.5 Q449 18 434 18 Q416 18 336 23 L260 28 L260 13 Q306 7 334 -1 Q359 -8 376 -20 Q402 -37 407 -80 Q466 -75 498 -59 Q527 -44 539 -18 Q548 3 548 38 L548 271 L945 271 Q969 271 973 287 Q948 309 906 342 L869 370 L812 300 Z" /><glyph glyph-name="uni2F40" unicode="&#x2f40;&#x652f;" d="M692 442 Q628 305 508 193 Q371 295 304 442 L692 442 ZM748 520 L693 471 L540 471 L540 645 L922 645 Q945 645 949 660 Q925 682 883 715 L847 744 L791 673 L540 673 L540 801 Q573 807 575 830 L457 841 L457 673 L56 673 L64 645 L457 645 L457 471 L122 471 L131 442 L284 442 Q342 275 463 154 Q290 11 40 -64 L47 -81 Q323 -22 510 111 Q658 -13 888 -78 Q897 -50 917.5 -32.5 Q938 -15 965 -10 L967 1 Q733 47 565 153 Q704 269 785 426 Q807 428 816 430.5 Q825 433 831 440 L748 520 Z" /><glyph glyph-name="uni2F42" unicode="&#x2f42;&#x6587;" d="M393 832 Q434 796 468 750 Q505 698 516 655 Q541 639 562 646 Q583 653 589 677.5 Q595 702 580 731 Q563 764 522 791 Q475 822 402 840 L393 832 ZM688 591 Q640 376 504 222 Q336 371 273 591 L688 591 ZM930 591 Q953 591 957 607 Q933 630 892 664 L855 694 L798 621 L45 621 L53 591 L252 591 Q309 335 457 172 Q296 19 38 -67 L45 -82 Q328 -15 503 127 Q652 -12 878 -80 Q890 -50 912.5 -32 Q935 -14 966 -11 L969 0 Q723 57 560 177 Q644 259 701 365 Q756 466 788 591 L930 591 Z" /><glyph glyph-name="uni2F43" unicode="&#x2f43;&#x6597;" d="M250 745 Q302 714 354 669 Q410 619 435 576 Q463 564 482.5 576 Q502 588 501.5 614.5 Q501 641 478 668 Q452 699 401 721 Q342 746 257 754 L250 745 ZM160 507 Q216 478 271 433 Q330 384 355 341 Q384 329 403.5 341.5 Q423 354 422.5 381 Q422 408 398 436 Q370 467 317 488 Q256 512 168 518 L160 507 ZM800 299 L679 280 L679 800 Q697 803 704.5 809.5 Q712 816 715 828 L596 841 L596 266 L47 179 L59 153 L596 237 L596 -82 L612 -82 Q627 -82 642.5 -76.5 Q658 -71 668.5 -63.5 Q679 -56 679 -50 L679 250 L941 291 Q950 293 956.5 298.5 Q963 304 964 312 Q937 331 890 359 L849 383 L800 299 Z" /><glyph glyph-name="uni2F45" unicode="&#x2f45;&#x65b9;" d="M396 841 Q434 805 465 760 Q499 709 508 667 Q533 650 554 657 Q575 664 582 688 Q589 712 575 741 Q560 773 522 800 Q477 831 406 848 L396 841 ZM803 638 L42 638 L51 609 L346 609 Q342 454 318 344 Q290 215 231 117 Q167 9 58 -73 L67 -85 Q176 -30 250 46 Q319 118 361 212 Q399 298 419 411 L715 411 Q706 252 690 154 Q673 49 650 28 Q642 21 634 18.5 Q626 16 610 16 Q588 16 466 26 L459 27 L458 11 Q493 5 522 -3 Q553 -13 565 -23 Q585 -38 585 -79 Q661 -79 706 -40 Q742 -7 765 109 Q786 216 795 399 Q825 403 837 415 L752 487 L706 440 L423 440 Q434 504 441 609 L934 609 Q956 609 960 625 Q936 647 895 680 L858 708 L803 638 Z" /><glyph glyph-name="uni2F46" unicode="&#x2f46;&#x65e0;" d="M925 193 L913 193 L909 176 Q896 120 890 98 Q881 62 875 51 Q872 44 867.5 41 Q863 38 854 36 Q838 34 760 34 L658 34 Q638 34 628.5 36.5 Q619 39 616 44 Q613 49 613 59 L613 444 L932 444 Q943 444 950.5 448 Q958 452 959 460 Q935 483 893 516 L856 545 L799 473 L486 473 Q493 522 496 585 Q499 623 501 702 L502 726 L865 726 Q888 726 892 742 Q869 764 828 797 L791 825 L737 755 L110 755 L118 726 L415 726 Q414 640 412 597 Q410 527 403 473 L47 473 L56 444 L400 444 Q385 340 349 258 Q309 165 237 88 Q158 4 36 -65 L49 -82 Q195 -17 289 67 Q375 144 423 243 Q465 330 482 444 L532 444 L532 39 Q532 7 541 -10 Q550 -27 573.5 -34.5 Q597 -42 642 -42 L755 -42 Q839 -42 883 -37 Q927 -32 945 -20 Q961 -10 961 9 Q961 22 954 30 Q947 38 928 45 L925 193 Z" /><glyph glyph-name="uni2F47" unicode="&#x2f47;&#x65e5;" d="M279 47 L279 371 L726 371 L726 47 L279 47 ZM726 711 L726 400 L279 400 L279 711 L726 711 ZM760 790 L716 740 L287 740 L197 780 L197 -73 L212 -73 Q229 -73 246 -67 Q260 -62 269.5 -54.5 Q279 -47 279 -42 L279 18 L726 18 L726 -67 L739 -67 Q753 -67 771 -61 Q786 -56 798 -49.5 Q810 -43 811 -39 L811 696 Q842 702 852 717 L760 790 Z" /><glyph glyph-name="uni2F49" unicode="&#x2f49;&#x6708;" d="M319 307 Q327 370 327 449 L327 507 L699 507 L699 307 L319 307 ZM699 731 L699 537 L327 537 L327 731 L699 731 ZM729 809 L689 759 L342 759 L246 798 L246 448 Q246 335 232 255 Q215 156 174 81 Q128 -4 47 -70 L58 -81 Q177 -16 242 82 Q296 164 315 277 L699 277 L699 41 Q699 28 693 22.5 Q687 17 672.5 17 Q658 17 590 22 L525 26 L525 11 Q596 0 626 -21 Q647 -38 652 -81 Q707 -76 737 -61 Q763 -47 773 -23 Q781 -4 781 31 L781 717 Q795 719 806.5 725 Q818 731 823 737 L729 809 Z" /><glyph glyph-name="uni2F4C" unicode="&#x2f4c;&#x6b62;" d="M800 -8 L565 -8 L565 427 L873 427 Q897 427 901 443 Q876 464 834 498 L796 527 L740 455 L565 455 L565 785 Q583 788 591 795 Q599 802 601 813 L481 826 L481 -8 L289 -8 L289 557 Q308 560 316 567 Q324 574 326 585 L205 597 L205 -8 L39 -8 L48 -37 L935 -37 Q958 -37 962 -21 Q938 1 895 35 L857 64 L800 -8 Z" /><glyph glyph-name="uni2F50" unicode="&#x2f50;&#x6bd4;" d="M476 452 Q499 452 502 468 Q481 491 442 525 L407 555 L355 482 L233 482 L233 785 Q253 789 262.5 796 Q272 803 274 816 L155 829 L155 64 Q155 48 147.5 38.5 Q140 29 113 11 L174 -71 Q189 -60 194 -44 Q280 0 421 79 L500 123 L495 138 Q413 109 265 61 L233 50 L233 452 L476 452 ZM929 212 L917 212 Q890 78 879 55 Q875 48 870 45 Q865 42 856 41 Q841 39 768 39 L675 39 Q645 39 635 46.5 Q625 54 625 73 L625 400 Q690 425 762.5 464 Q835 503 901 548 Q916 541 925.5 541.5 Q935 542 942 549 L854 635 Q798 578 738 523.5 Q678 469 625 429 L625 786 Q659 791 661 814 L546 827 L546 51 Q546 16 556.5 -3.5 Q567 -23 591.5 -31 Q616 -39 661 -39 L765 -39 Q846 -39 889.5 -34 Q933 -29 950 -17.5 Q967 -6 967 13 Q967 25 960 33 Q953 41 933 49 L929 212 Z" /><glyph glyph-name="uni2F53" unicode="&#x2f53;&#x6c14;" d="M904 674 Q927 674 931 690 Q907 713 867 744 L832 770 L778 703 L305 703 L316 726 Q333 765 341 785 Q357 784 367 789.5 Q377 795 380 804 L259 845 Q224 713 162 583 Q103 460 37 374 L50 365 Q119 421 180.5 499.5 Q242 578 291 674 L904 674 ZM253 575 L261 545 L832 545 Q855 545 859 561 Q837 582 798 612 L764 638 L713 575 L253 575 ZM954 122 L941 123 Q926 64 913 32 Q909 23 904 21 Q899 19 888 22 Q803 48 769 165 Q744 252 747 399 Q776 404 787 416 L698 486 L654 439 L152 439 L161 410 L664 410 Q666 277 679 197 Q696 94 737 32 Q783 -38 865 -64 Q904 -79 931 -77 Q961 -75 971 -52 Q976 -40 971 -26.5 Q966 -13 947 4 L954 122 Z" /><glyph glyph-name="uni2F5A" unicode="&#x2f5a;&#x7247;" d="M809 568 L626 568 L626 805 Q643 808 650.5 814.5 Q658 821 660 832 L544 843 L544 568 L290 568 L290 770 Q308 773 315.5 780 Q323 787 325 798 L211 810 L211 455 Q211 344 198 261 Q182 160 145 83 Q104 -5 34 -69 L47 -80 Q157 -13 216 99 Q266 193 282 325 L608 325 L608 -81 L621 -81 Q639 -81 663.5 -73 Q688 -65 689 -61 L689 309 Q724 315 735 330 L640 402 L597 353 L285 353 Q290 410 290 455 L290 540 L933 540 Q955 540 959 555 Q937 576 897 609 L862 638 L809 568 Z" /><glyph glyph-name="uni2F63" unicode="&#x2f63;&#x751f;" d="M800 -8 L540 -8 L540 286 L845 286 Q867 286 871 302 Q847 323 804 356 L767 385 L711 315 L540 315 L540 568 L878 568 Q902 568 906 584 Q880 607 839 639 L803 666 L747 598 L540 598 L540 798 Q558 801 566 808 Q574 815 576 826 L454 839 L454 598 L260 598 Q303 678 329 748 Q345 747 354.5 752.5 Q364 758 367 768 L245 806 Q212 674 154 548 Q97 426 32 343 L46 334 Q156 421 243 568 L454 568 L454 315 L154 315 L161 286 L454 286 L454 -8 L40 -8 L48 -37 L937 -37 Q959 -37 963 -21 Q939 2 895 35 L857 64 L800 -8 Z" /><glyph glyph-name="uni2F64" unicode="&#x2f64;&#x7528;" d="M543 294 L543 505 L784 505 L784 294 L543 294 ZM235 294 Q243 359 243 462 L243 505 L463 505 L463 294 L235 294 ZM463 739 L463 534 L243 534 L243 739 L463 739 ZM784 739 L784 534 L543 534 L543 739 L784 739 ZM815 818 L773 767 L256 767 L163 805 L163 461 Q163 348 155 272 Q145 171 120 93 Q90 2 36 -68 L51 -77 Q132 -12 178 82 Q216 160 231 264 L463 264 L463 -71 L477 -71 Q496 -71 512 -66 Q526 -62 534.5 -55.5 Q543 -49 543 -46 L543 264 L784 264 L784 41 Q784 29 779 23.5 Q774 18 761 18 Q748 18 690 23 L635 27 L635 11 Q699 2 723 -18 Q733 -27 738.5 -41 Q744 -55 746 -76 Q797 -71 824 -57 Q848 -44 857 -21 Q864 -2 864 32 L864 721 Q880 724 892.5 730.5 Q905 737 912 744 L815 818 Z" /><glyph glyph-name="uni2F69" unicode="&#x2f69;&#x767d;" d="M234 38 L234 317 L768 317 L768 38 L234 38 ZM768 613 L768 346 L234 346 L234 613 L768 613 ZM803 696 L756 643 L417 643 Q465 698 530 792 Q545 792 554.5 798 Q564 804 566 813 L438 844 Q430 800 415.5 743.5 Q401 687 387 643 L242 643 L151 682 L151 -77 L165 -77 Q182 -77 199 -71 Q214 -66 224 -58.5 Q234 -51 234 -46 L234 9 L768 9 L768 -73 L780 -73 Q795 -73 813 -67 Q828 -62 840 -54.5 Q852 -47 853 -43 L853 593 Q870 597 883.5 603.5 Q897 610 904 617 L803 696 Z" /><glyph glyph-name="uni2F6A" unicode="&#x2f6a;&#x76ae;" d="M697 417 Q643 277 538 169 Q406 268 347 417 L697 417 ZM468 640 L468 446 L251 446 L251 640 L468 640 ZM748 494 L695 446 L550 446 L550 640 L790 640 Q781 612 759 546 L747 511 L758 505 Q787 528 824.5 563 Q862 598 885 624 Q902 625 910 627 Q918 629 924 635 L837 718 L787 668 L550 668 L550 799 Q583 804 586 827 L468 839 L468 668 L264 668 L170 706 L170 438 Q170 336 162 262 Q151 166 124 90 Q93 1 39 -68 L51 -78 Q133 -15 180 74 Q220 150 237 247 Q250 319 251 417 L325 417 Q377 243 493 126 Q350 3 140 -63 L148 -79 Q383 -28 537 86 Q672 -25 885 -79 Q895 -49 914.5 -31 Q934 -13 961 -9 L963 2 Q743 40 593 131 Q716 241 787 402 Q806 404 815 407 Q824 410 830 417 L748 494 Z" /><glyph glyph-name="uni2F6C" unicode="&#x2f6c;&#x76ee;" d="M275 35 L275 252 L732 252 L732 35 L275 35 ZM732 494 L732 281 L275 281 L275 494 L732 494 ZM732 733 L732 524 L275 524 L275 733 L732 733 ZM766 814 L721 761 L281 761 L192 801 L192 -80 L206 -80 Q224 -80 240 -74.5 Q256 -69 265.5 -61 Q275 -53 275 -47 L275 5 L732 5 L732 -74 L745 -74 Q759 -74 777 -68 Q792 -63 804 -56 Q816 -49 817 -45 L817 715 Q849 721 863 738 L766 814 Z" /><glyph glyph-name="uni2F70" unicode="&#x2f70;&#x793a;" d="M832 714 Q854 714 858 730 Q834 751 793 783 L757 811 L702 743 L154 743 L161 714 L832 714 ZM244 378 Q215 293 161 202 Q100 101 33 34 L44 22 Q128 76 205 162 Q271 236 317 315 Q335 313 343 316.5 Q351 320 355 329 L244 378 ZM663 357 Q732 288 788 209 Q853 115 872 46 Q890 33 905 32.5 Q920 32 930.5 42.5 Q941 53 943.5 71.5 Q946 90 940 115 Q933 141 916 170 Q896 201 866 232 Q833 267 787 299 Q738 334 675 365 L663 357 ZM800 506 L42 506 L51 477 L461 477 L461 37 Q461 26 455.5 22 Q450 18 436 18 Q422 18 357 22 L294 25 L294 11 Q333 6 357 -2 Q378 -9 392 -20 Q414 -39 417 -80 Q470 -76 499 -60 Q525 -46 535 -20 Q543 0 543 35 L543 477 L934 477 Q956 477 960 493 Q936 515 893 548 L856 576 L800 506 Z" /><glyph glyph-name="uni2F74" unicode="&#x2f74;&#x7acb;" d="M379 836 Q414 793 441 747 Q473 691 482 648 Q506 630 527 636 Q548 642 556 665.5 Q564 689 552 719 Q538 753 501 783 Q458 818 390 842 L379 836 ZM901 591 Q925 591 928 607 Q904 629 862 662 L825 690 L768 620 L78 620 L86 591 L901 591 ZM214 519 Q260 408 288 307 Q323 178 324 86 Q352 59 374.5 69.5 Q397 80 404 120 Q412 164 399 224 Q384 291 345 363 Q300 445 229 523 L214 519 ZM803 15 L568 15 Q629 117 689 252 Q743 372 778 476 Q810 476 817 498 L689 533 Q665 416 625 274 Q583 129 542 15 L36 15 L45 -15 L938 -15 Q961 -15 965 1 Q940 24 898 57 L860 86 L803 15 Z" /><glyph glyph-name="uni2F79" unicode="&#x2f79;&#x7f51;" d="M396 696 Q385 589 359 483 Q304 554 220 623 L208 614 Q284 534 340 408 Q315 316 280 234 Q243 146 197 79 L210 69 Q309 169 377 324 Q394 282 419 207 L426 187 Q446 169 460.5 179 Q475 189 477 220 Q478 254 463 300 Q446 353 411 410 Q450 518 478 649 Q497 650 506 655 Q515 660 518 671 L396 696 ZM677 696 Q663 592 635 482 Q582 557 516 624 L502 615 Q565 534 614 408 Q547 190 445 55 L458 45 Q567 147 647 316 Q675 229 696 134 Q717 113 733 124.5 Q749 136 751 174 Q754 214 739 270 Q721 333 684 402 Q728 519 758 650 Q777 651 785.5 656 Q794 661 797 671 L677 696 ZM848 824 L808 776 L188 776 L103 814 L103 -80 L117 -80 Q133 -80 147.5 -74.5 Q162 -69 171 -62 Q180 -55 180 -49 L180 746 L818 746 L818 33 Q818 20 812 13.5 Q806 7 789.5 7 Q773 7 700 12 L631 17 L631 2 Q672 -4 699 -12 Q722 -19 739 -29 Q751 -36 757.5 -48.5 Q764 -61 767 -81 Q822 -76 851 -62 Q878 -49 888 -26 Q896 -8 896 25 L896 731 Q911 734 922.5 740 Q934 746 940 752 L848 824 Z" /><glyph glyph-name="uni2F7B" unicode="&#x2f7b;&#x7fbd;" d="M341 355 Q248 299 160 249 Q74 201 35 182 L101 94 Q108 98 112 106.5 Q116 115 117 124 Q203 201 320 317 L348 344 L341 355 ZM92 623 Q135 586 167 524 Q189 480 205 425 Q226 406 246 413 Q266 420 272.5 446 Q279 472 266 504 Q252 541 215 573 Q171 609 101 633 L92 623 ZM406 810 L368 764 L56 764 L65 736 L377 736 L377 42 Q377 28 371 22.5 Q365 17 349.5 17 Q334 17 264 22 L196 26 L196 11 Q237 5 261.5 -2.5 Q286 -10 300 -21 Q312 -29 319 -45 Q325 -57 328 -78 Q383 -73 412 -58 Q438 -45 448 -20 Q455 -2 455 33 L455 724 Q485 731 494 743 L406 810 ZM791 380 Q695 320 608.5 269 Q522 218 483 199 L551 113 Q564 123 566 145 Q651 222 769 338 L799 368 L791 380 ZM533 626 Q577 592 610 534 Q635 490 650 439 Q673 420 693 427.5 Q713 435 719.5 462 Q726 489 712 520 Q696 556 657 585 Q611 618 540 636 L533 626 ZM850 811 L813 764 L508 764 L517 736 L822 736 L822 42 Q822 28 816 22.5 Q810 17 793.5 17 Q777 17 706 22 L638 26 L638 12 Q714 0 743 -21 Q755 -30 762 -45 Q768 -59 771 -79 Q827 -74 857 -60 Q884 -46 894 -22 Q902 -3 902 32 L902 724 Q932 731 940 743 L850 811 Z" /><glyph glyph-name="uni2F83" unicode="&#x2f83;&#x81ea;" d="M278 22 L278 213 L734 213 L734 22 L278 22 ZM734 430 L734 243 L278 243 L278 430 L734 430 ZM734 642 L734 458 L278 458 L278 642 L734 642 ZM767 721 L723 670 L450 670 Q503 728 547 795 Q562 796 571 802 Q580 808 582 818 L450 841 Q445 801 436 756 Q426 707 415 670 L285 670 L196 710 L196 -79 L210 -79 Q227 -79 244 -73 Q259 -68 268.5 -60.5 Q278 -53 278 -48 L278 -8 L734 -8 L734 -77 L746 -77 Q760 -77 777 -71 Q792 -66 804 -59 Q816 -52 817 -48 L817 625 Q847 632 860 647 L767 721 Z" /><glyph glyph-name="uni2F84" unicode="&#x2f84;&#x81f3;" d="M435 730 Q388 673 307 606 Q215 532 145 500 Q139 498 125 495 L113 492 L154 391 Q170 398 180 414 Q542 459 768 497 Q819 440 840 393 Q858 384 872.5 385 Q887 386 896 397 Q905 408 905 426 Q905 444 896 465 Q886 489 866 513 Q843 540 809 564 Q772 591 724 615 Q671 640 605 660 L595 650 Q680 590 748 519 Q387 495 209 491 Q291 527 372.5 575 Q454 623 503 664 Q519 660 529.5 664 Q540 668 545 676 L448 730 L910 730 Q934 730 938 746 Q913 768 871 801 L834 829 L778 760 L64 760 L73 730 L435 730 ZM800 -2 L540 -2 L540 223 L849 223 Q860 223 867.5 227 Q875 231 876 239 Q851 262 810 295 L773 323 L716 253 L540 253 L540 378 Q558 382 566 389 Q574 396 576 406 L457 418 L457 253 L138 253 L146 223 L457 223 L457 -2 L42 -2 L51 -31 L936 -31 Q959 -31 963 -15 Q938 8 896 41 L858 70 L800 -2 Z" /><glyph glyph-name="uni2F8A" unicode="&#x2f8a;&#x8272;" d="M561 698 Q515 597 480 549 L258 549 L221 564 Q282 629 331 698 L561 698 ZM754 521 L754 305 L535 305 L535 521 L754 521 ZM246 521 L457 521 L457 305 L246 305 L246 521 ZM906 191 L893 191 Q881 146 868 109 Q853 63 843 48 Q831 30 806 24 Q784 19 732 19 L346 19 Q293 19 271 28 Q246 38 246 66 L246 276 L754 276 L754 210 L766 210 Q786 210 810 219 Q834 228 835 234 L835 505 Q850 508 861.5 514 Q873 520 878 527 L786 596 L744 549 L503 549 Q565 590 655 688 Q672 689 681 691 Q690 693 695 699 L610 775 L561 727 L350 727 Q376 765 395 802 Q414 801 422.5 804 Q431 807 434 816 L312 847 Q270 733 194 618 Q113 498 27 426 L39 414 Q103 452 166 510 L166 68 Q166 20 186.5 -7 Q207 -34 249 -45 Q287 -56 352 -56 L739 -56 Q825 -56 875 -48 Q921 -41 941 -27 Q958 -14 958 7 Q958 20 947 26 Q939 31 907 40 L906 191 Z" /><glyph glyph-name="uni2F8E" unicode="&#x2f8e;&#x8840;" d="M230 593 L351 593 L351 5 L230 5 L230 593 ZM550 593 L550 5 L425 5 L425 593 L550 593 ZM745 593 L745 5 L625 5 L625 593 L745 593 ZM838 5 L825 5 L825 583 Q859 587 869 602 L772 673 L734 623 L401 623 Q464 688 528 776 Q557 775 566 795 L437 831 Q424 783 405 727 Q385 668 367 623 L240 623 L152 659 L152 5 L38 5 L46 -25 L945 -25 Q967 -25 970 -9 Q952 14 917 49 L886 80 L838 5 Z" /><glyph glyph-name="uni2F8F" unicode="&#x2f8f;&#x884c;&#xfa08;" d="M902 717 Q913 717 920.5 721 Q928 725 929 733 Q907 753 870 784 L837 811 L786 747 L434 747 L442 717 L902 717 ZM281 839 Q245 775 181 697 Q113 615 47 558 L57 547 Q136 588 220 654 Q292 711 346 768 Q362 765 370.5 767.5 Q379 770 384 778 L281 839 ZM290 632 Q250 549 179 451 Q102 344 27 271 L38 260 Q118 311 195 383 L195 -81 L210 -81 Q231 -81 253 -72 Q273 -63 275 -57 L275 427 Q298 431 305 445 L271 458 Q327 519 358 562 Q376 559 384.5 562 Q393 565 398 573 L290 632 ZM826 516 L379 516 L387 487 L703 487 L703 41 Q703 29 696.5 24 Q690 19 674 19 Q658 19 579 24 L504 29 L504 14 Q549 8 576.5 0.5 Q604 -7 619 -18 Q645 -35 648 -76 Q704 -72 736 -56 Q764 -42 775 -17 Q784 4 784 38 L784 487 L944 487 Q967 487 970 503 Q949 524 910 555 L876 582 L826 516 Z" /><glyph glyph-name="uni2F9D" unicode="&#x2f9d;&#x8eab;" d="M317 284 L317 399 L678 399 L678 304 L655 284 L317 284 ZM678 684 L678 572 L317 572 L317 684 L678 684 ZM317 543 L678 543 L678 428 L317 428 L317 543 ZM863 524 Q816 451 760 388 L760 669 Q774 672 785.5 678 Q797 684 802 690 L709 762 L668 713 L472 713 Q515 764 541 798 Q556 798 566 804 Q576 810 578 821 L453 844 Q441 779 423 713 L330 713 L237 751 L237 284 L68 284 L77 255 L623 255 Q505 157 364 80 Q216 -2 56 -54 L63 -70 Q241 -28 402 48 Q552 119 678 214 L678 28 Q678 15 672.5 9.5 Q667 4 652.5 4 Q638 4 573 9 L511 13 L511 0 Q577 -9 608 -29 Q620 -37 626 -51 Q630 -63 633 -83 Q687 -78 716 -65 Q742 -52 752 -30 Q760 -12 760 21 L760 281 Q853 365 914 449 Q931 442 941 443 Q951 444 957 452 L863 524 Z" /><glyph glyph-name="uni2FA5" unicode="&#x2fa5;&#x91cc;&#xf9e9;" d="M243 383 L243 548 L456 548 L456 383 L243 383 ZM456 741 L456 576 L243 576 L243 741 L456 741 ZM758 741 L758 576 L541 576 L541 741 L758 741 ZM541 383 L541 548 L758 548 L758 383 L541 383 ZM801 -14 L541 -14 L541 167 L859 167 Q870 167 877.5 171 Q885 175 886 183 Q862 205 821 237 L785 265 L730 196 L541 196 L541 354 L758 354 L758 302 L770 302 Q790 302 814.5 311.5 Q839 321 840 327 L840 726 Q854 729 865 734.5 Q876 740 882 747 L791 817 L748 769 L249 769 L160 808 L160 284 L173 284 Q189 284 207 289 Q222 294 232.5 301 Q243 308 243 312 L243 354 L456 354 L456 196 L129 196 L137 167 L456 167 L456 -14 L40 -14 L49 -43 L935 -43 Q958 -43 962 -27 Q938 -5 895 28 L857 57 L801 -14 Z" /><glyph glyph-name="uni2FA6" unicode="&#x2fa6;&#x91d1;&#xf90a;" d="M790 -21 L535 -21 L535 286 L879 286 Q902 286 906 302 Q883 323 844 354 L809 381 L756 316 L535 316 L535 471 L712 471 Q735 471 739 487 Q717 507 680 536 L648 560 L598 501 L250 501 L257 471 L452 471 L452 316 L103 316 L111 286 L452 286 L452 -21 L55 -21 L63 -49 L922 -49 Q945 -49 949 -34 Q925 -11 883 22 L846 51 L790 -21 ZM210 241 Q239 194 258 144 Q281 85 282 39 Q303 18 324 21.5 Q345 25 355.5 48 Q366 71 359 102 Q350 138 319 173 Q283 214 222 247 L210 241 ZM616 12 Q653 44 697 93 Q738 140 774 190 Q789 189 799 193.5 Q809 198 812 207 L698 252 Q675 186 650 126 Q624 61 602 21 L616 12 ZM448 847 Q423 779 353 692 Q288 610 200 532 Q112 454 28 405 L35 392 Q129 433 225 498 Q318 561 397 635.5 Q476 710 524 781 Q575 676 679 580 Q777 491 900 428 Q906 452 925 472 Q946 493 972 499 L974 515 Q835 565 729 631 Q606 707 543 794 Q563 796 573 800.5 Q583 805 585 814 L448 847 Z" /><glyph glyph-name="uni2FAF" unicode="&#x2faf;&#x9762;" d="M805 552 L805 31 L656 31 L656 552 L805 552 ZM192 552 L338 552 L338 31 L192 31 L192 552 ZM580 401 L413 401 L413 552 L580 552 L580 401 ZM413 188 L580 188 L580 31 L413 31 L413 188 ZM580 217 L413 217 L413 372 L580 372 L580 217 ZM803 758 L44 758 L53 730 L434 730 Q425 658 410 582 L204 582 L113 619 L113 -78 L126 -78 Q144 -78 161 -73 Q174 -69 183 -63 Q192 -57 192 -54 L192 2 L805 2 L805 -70 L818 -70 Q836 -70 853 -65 Q868 -61 877.5 -55 Q887 -49 887 -46 L887 545 Q918 551 928 564 L842 632 L800 582 L443 582 Q492 647 542 730 L936 730 Q958 730 962 746 Q938 767 896 800 L859 828 L803 758 Z" /><glyph glyph-name="uni2FB8" unicode="&#x2fb8;&#x9996;" d="M242 830 Q274 796 299 754 Q327 706 334 668 Q357 651 377.5 657 Q398 663 406.5 684.5 Q415 706 404 733 Q392 764 357 789 Q317 819 253 837 L242 830 ZM715 474 L715 346 L283 346 L283 474 L715 474 ZM283 22 L283 156 L715 156 L715 22 L283 22 ZM283 317 L715 317 L715 185 L283 185 L283 317 ZM798 650 L606 650 Q644 682 681 719.5 Q718 757 744 789 Q759 788 768.5 793.5 Q778 799 781 808 L659 841 Q645 799 621 746 Q598 694 574 650 L39 650 L48 622 L439 622 Q432 556 426 503 L290 503 L201 542 L201 -78 L215 -78 Q232 -78 249 -72 Q263 -68 273 -61 Q283 -54 283 -49 L283 -7 L715 -7 L715 -73 L728 -73 Q741 -73 758 -68 Q773 -63 784.5 -57 Q796 -51 797 -47 L797 459 Q811 462 822.5 468 Q834 474 840 480 L748 551 L705 503 L461 503 Q500 551 547 622 L933 622 Q955 622 959 638 Q935 659 892 692 L855 721 L798 650 Z" /><glyph glyph-name="uni2FBC" unicode="&#x2fbc;&#x9ad8;" d="M396 102 L396 219 L606 219 L606 102 L396 102 ZM682 208 Q694 210 704.5 215 Q715 220 720 226 L636 288 L597 248 L401 248 L321 283 L321 11 L332 11 Q346 11 361 15.5 Q376 20 386 25.5 Q396 31 396 35 L396 72 L606 72 L606 25 L618 25 Q636 25 658.5 34 Q681 43 682 48 L682 208 ZM810 356 L204 356 L117 394 L117 -80 L130 -80 Q145 -80 161 -75 Q176 -70 186 -63.5 Q196 -57 196 -53 L196 327 L820 327 L820 28 Q820 17 815 12.5 Q810 8 797 8 Q784 8 731 11 L682 14 L682 0 Q741 -8 763 -28 Q773 -36 778 -50 Q781 -61 784 -82 Q834 -77 860 -64 Q884 -52 893 -30 Q900 -12 900 20 L900 312 Q914 315 925.5 320.5 Q937 326 942 332 L849 401 L810 356 ZM343 467 L343 583 L665 583 L665 467 L343 467 ZM678 398 Q696 398 720 405.5 Q744 413 745 418 L745 568 Q759 571 770.5 577 Q782 583 787 589 L696 657 L655 612 L348 612 L264 649 L264 390 L276 390 Q290 390 307 395 Q322 399 332.5 404.5 Q343 410 343 413 L343 438 L665 438 L665 398 L678 398 ZM794 719 L544 719 Q558 730 559.5 750.5 Q561 771 547 791 Q530 813 495 828 Q456 845 397 850 L388 841 Q421 820 450 786 Q481 750 490 719 L52 719 L60 690 L928 690 Q950 690 954 706 Q930 728 888 761 L851 789 L794 719 Z" /><glyph glyph-name="uni2FCA" unicode="&#x2fca;&#x9ed1;" d="M192 141 Q186 93 152 53 Q121 18 82 2 Q62 -8 53 -24 Q44 -40 50 -58 Q58 -78 83 -81 Q108 -84 133 -70.5 Q158 -57 178 -31 Q201 0 210 40 Q220 86 208 140 L192 141 ZM329 130 Q345 87 355 42 Q367 -12 366 -53 Q385 -73 404.5 -71.5 Q424 -70 436 -50.5 Q448 -31 444 -2 Q440 30 417 63 Q390 101 341 134 L329 130 ZM517 128 Q548 86 572 40 Q600 -15 608 -56 Q631 -74 651 -68.5 Q671 -63 679 -40.5 Q687 -18 676 11 Q665 44 631 74 Q592 109 529 134 L517 128 ZM716 129 Q768 90 813 36 Q864 -24 880 -73 Q906 -88 926 -78 Q946 -68 949 -41 Q952 -14 932 18 Q909 54 862 83 Q807 118 725 138 L716 129 ZM591 518 Q621 546 656 586 Q685 617 708 647 Q722 645 731 649.5 Q740 654 742 662 L642 704 Q633 670 616 618 Q597 562 580 524 L591 518 ZM280 693 Q301 659 316 620 Q334 574 335 539 Q352 523 369 525.5 Q386 528 395 545.5 Q404 563 399 587 Q393 615 369 642 Q341 674 292 699 L280 693 ZM247 479 L247 749 L457 749 L457 479 L247 479 ZM753 749 L753 479 L536 479 L536 749 L753 749 ZM810 202 L536 202 L536 312 L854 312 Q876 312 880 328 Q858 349 820 380 L786 408 L735 342 L536 342 L536 450 L753 450 L753 413 L766 413 Q785 413 809 422 Q833 431 834 436 L834 737 Q847 739 857 744 Q867 749 872 755 L784 823 L745 778 L253 778 L167 816 L167 395 L179 395 Q194 395 210 399.5 Q226 404 236.5 410.5 Q247 417 247 421 L247 450 L457 450 L457 342 L132 342 L140 312 L457 312 L457 202 L42 202 L51 173 L934 173 Q956 173 960 189 Q938 210 898 242 L863 270 L810 202 Z" /><glyph glyph-name="uni2FCF" unicode="&#x2fcf;&#x9f20;" d="M234 459 L747 459 L747 420 L760 420 Q778 420 801 429 Q824 438 825 444 L825 722 Q853 728 866 742 L778 809 L737 764 L515 764 L524 735 L747 735 L747 627 L537 627 L546 597 L747 597 L747 488 L234 488 L234 597 L465 597 Q488 597 491 613 Q472 632 437 660 L407 685 L362 626 L234 626 L234 726 Q334 743 434 774 Q470 761 484 775 L403 843 Q375 824 332 801 Q286 777 242 757 L158 786 L158 413 L169 413 Q188 413 204 418 Q217 422 225 428 Q233 434 234 437 L234 459 ZM546 223 Q577 200 604 168 Q634 132 643 104 Q662 91 678 96 Q694 101 699 118 Q704 135 693 155 Q680 179 649 197 Q613 219 556 231 L546 223 ZM552 358 Q581 336 606 308 Q635 275 643 248 Q661 236 677 240.5 Q693 245 698 261.5 Q703 278 693 297 Q681 319 651 336 Q616 356 561 367 L552 358 ZM395 63 Q315 42 229 23 L229 373 Q254 377 257 396 L156 406 L156 41 Q156 28 150 20 Q144 12 122 -1 L174 -85 Q188 -78 195 -60 Q291 -13 399 50 L395 63 ZM249 219 Q279 198 304 168 Q332 135 341 108 Q359 96 374.5 100.5 Q390 105 395 121.5 Q400 138 390 157 Q378 180 348 197 Q313 217 259 227 L249 219 ZM256 354 Q284 336 310 309 Q339 280 349 255 Q367 244 382.5 249.5 Q398 255 402.5 271 Q407 287 396 305 Q384 325 354 340 Q319 357 265 364 L256 354 ZM729 70 Q584 41 518 30 L518 376 Q543 380 546 399 L445 409 L445 52 Q445 40 438.5 31.5 Q432 23 410 10 L463 -74 Q477 -66 484 -49 Q565 -18 694 39 L733 56 L729 70 ZM950 88 L940 91 Q922 41 912 22 Q908 14 903.5 13 Q899 12 891 16 Q833 47 812 165 Q798 243 800 372 Q827 378 830 398 L720 409 Q721 286 728 217 Q739 111 767 46 Q801 -34 864 -64 Q896 -79 921 -80 Q951 -80 961 -58 Q966 -48 960.5 -33.5 Q955 -19 941 -3 L950 88 Z" /><glyph glyph-name="uni3001" unicode="&#x3001;" d="M37 159 Q98 115 138 62 Q167 23 194 -34 Q205 -57 217.5 -67.5 Q230 -78 247 -78 Q269 -78 282 -64 Q295 -50 295 -26 Q295 -9 289.5 7 Q284 23 272 41 Q244 82 194 114 Q135 151 48 174 L37 159 Z" /><glyph glyph-name="uni3002" unicode="&#x3002;" d="M183 -82 Q221 -82 253.5 -63 Q286 -44 304.5 -11.5 Q323 21 323 59 Q323 97 304.5 129.5 Q286 162 253.5 180.5 Q221 199 183 199 Q145 199 112.5 180.5 Q80 162 61 129.5 Q42 97 42 59 Q42 21 61 -11.5 Q80 -44 112.5 -63 Q145 -82 183 -82 ZM183 165 Q212 165 236 150.5 Q260 136 274.5 112 Q289 88 289 59 Q289 30 274.5 5.5 Q260 -19 235.5 -33.5 Q211 -48 182.5 -48 Q154 -48 129.5 -33.5 Q105 -19 90.5 5.5 Q76 30 76 59 Q76 88 90.5 112 Q105 136 129.5 150.5 Q154 165 183 165 Z" /><glyph glyph-name="uni300A" unicode="&#x300a;" d="M564 380 L822 830 L793 848 L524 380 L793 -88 L822 -70 L564 380 ZM707 380 L964 830 L935 848 L667 380 L935 -88 L964 -70 L707 380 Z" /><glyph glyph-name="uni300B" unicode="&#x300b;" d="M207 -88 L476 380 L207 848 L178 830 L436 380 L178 -70 L207 -88 ZM65 -88 L333 380 L65 848 L36 830 L293 380 L36 -70 L65 -88 Z" /><glyph glyph-name="uni3010" unicode="&#x3010;" d="M965 -68 Q843 -12 774 100 Q702 218 702 380 Q702 542 774 660 Q843 772 965 828 L965 845 L622 845 L622 -85 L965 -85 L965 -68 Z" /><glyph glyph-name="uni3011" unicode="&#x3011;" d="M35 -68 L35 -85 L378 -85 L378 845 L35 845 L35 828 Q157 772 226 660 Q298 542 298 380 Q298 218 226 100 Q157 -12 35 -68 Z" /><glyph glyph-name="uni3196" unicode="&#x3196;&#x4e0a;" d="M800 1 L513 1 L513 434 L857 434 Q880 434 884 450 Q860 472 818 506 L781 535 L724 462 L513 462 L513 789 Q531 792 539 799 Q547 806 549 818 L427 831 L427 1 L39 1 L48 -29 L935 -29 Q958 -29 962 -13 Q938 10 895 44 L857 73 L800 1 Z" /><glyph glyph-name="uni319E" unicode="&#x319e;&#x5730;" d="M236 507 L360 507 Q383 507 386 523 Q368 542 335 574 L306 602 L262 536 L236 536 L236 780 Q254 783 262 790 Q270 797 272 808 L159 820 L159 536 L40 536 L48 507 L159 507 L159 166 Q89 138 30 119 L74 20 Q90 28 95 49 Q241 139 385 246 L380 257 Q282 215 236 197 L236 507 ZM929 194 L917 194 Q888 73 874 47 Q869 40 862 37 Q855 34 844 32 Q815 28 710 28 L565 28 Q536 28 520.5 32 Q505 36 499 44.5 Q493 53 493 69 L493 473 L614 518 L614 103 L629 103 Q649 103 669.5 112.5 Q690 122 690 130 L690 546 L829 597 Q826 426 820 353 Q813 277 800 262 Q796 257 790 255 Q784 253 773 253 Q747 253 705 257 L705 242 Q743 233 754 218 Q761 211 764 196 Q766 185 766 164 Q823 164 855 196 Q873 214 883.5 255 Q894 296 899 375 Q903 450 905 585 Q934 589 944 601 L860 669 L819 625 L690 577 L690 799 Q708 802 716 809 Q724 816 726 827 L614 839 L614 549 L493 504 L493 721 Q525 726 529 748 L416 761 L416 475 L281 425 L300 401 L416 444 L416 51 Q416 11 429 -9.5 Q442 -30 474 -38 Q502 -46 558 -46 L706 -46 Q816 -46 872 -41.5 Q928 -37 950 -25 Q970 -14 970 7 Q970 19 961.5 27.5 Q953 36 932 43 L929 194 Z" /><glyph glyph-name="uni4E03" unicode="&#x4e03;" d="M798 544 L427 478 L427 787 Q460 793 462 815 L346 828 L346 463 L39 408 L52 381 L346 434 L346 67 Q346 27 360 5 Q374 -17 406 -26 Q436 -34 492 -34 L637 -34 Q746 -34 802 -29 Q858 -24 881 -11 Q901 0 901 23 Q901 36 893 44 Q885 52 862 60 L858 224 L847 224 Q817 96 802 65 Q797 57 790 54 Q783 51 771 50 Q742 46 642 46 L499 46 Q456 46 441.5 55 Q427 64 427 89 L427 448 L939 540 Q948 543 954.5 548 Q961 553 961 561 Q934 579 887 606 L845 629 L798 544 Z" /><glyph glyph-name="uni4E07" unicode="&#x4e07;" d="M800 725 L45 725 L54 696 L357 696 Q355 573 348 502 Q338 392 311 305 Q278 200 218 113 Q151 14 45 -67 L58 -83 Q179 -13 259 77 Q332 157 375 257 Q412 343 429 450 L716 450 Q706 287 687 180 Q666 64 640 42 Q630 34 621 31.5 Q612 29 596 29 Q577 29 521 34 Q469 38 426 43 L425 26 Q464 19 495 11 Q531 1 544 -9 Q566 -26 566 -67 Q647 -67 696 -25 Q735 11 761 137 Q785 255 796 439 Q826 443 838 455 L752 528 L707 480 L433 480 Q446 570 449 696 L931 696 Q954 696 957 712 Q933 734 892 767 L855 795 L800 725 Z" /><glyph glyph-name="uni4E09" unicode="&#x4e09;" d="M38 36 L47 6 L942 6 Q966 6 970 22 Q944 46 899 81 L859 112 L799 36 L38 36 ZM165 395 L173 366 L799 366 Q822 366 825 382 Q801 404 758 437 L720 466 L663 395 L165 395 ZM93 722 L102 693 L891 693 Q902 693 909.5 697 Q917 701 918 709 Q892 732 849 766 L811 795 L751 722 L93 722 Z" /><glyph glyph-name="uni4E0B" unicode="&#x4e0b;" d="M798 749 L38 749 L47 720 L436 720 L436 -80 L451 -80 Q469 -80 486 -75 Q501 -70 510 -63.5 Q519 -57 519 -53 L519 504 Q607 451 683 388 Q772 315 810 256 Q830 247 846 249.5 Q862 252 870 264 Q878 276 877 294.5 Q876 313 863 335 Q850 359 825 383 Q797 410 757 434 Q713 461 657 483 Q594 508 519 526 L519 720 L938 720 Q962 720 965 736 Q940 759 896 793 L857 823 L798 749 Z" /><glyph glyph-name="uni4E0D" unicode="&#x4e0d;" d="M926 721 Q950 721 954 737 Q928 760 885 794 L847 823 L789 751 L45 751 L54 721 L490 721 Q453 615 383 503 Q314 392 222.5 290 Q131 188 30 110 L41 98 Q162 170 270 269 Q375 365 458 479 L458 -82 L473 -82 Q487 -82 503 -78 Q518 -74 528.5 -68.5 Q539 -63 539 -60 L539 530 Q565 534 570 549 L517 569 Q564 641 597 721 L926 721 ZM584 462 Q676 398 756 324 Q853 234 889 167 Q908 157 923.5 159 Q939 161 947 173 Q955 185 953.5 204.5 Q952 224 940 248 Q926 274 901 300 Q873 330 834 358 Q789 389 732 417 Q670 447 593 472 L584 462 Z" /><glyph glyph-name="uni4E0E" unicode="&#x4e0e;" d="M542 247 L43 247 L51 217 L668 217 Q691 217 695 233 Q671 255 631 287 L596 315 L542 247 ZM777 656 L319 656 Q332 743 338 795 Q369 794 376 816 L262 843 Q258 779 240 660 Q223 545 207 464 Q183 454 169 443 L253 386 L289 425 L775 425 Q762 269 740 165 Q716 51 688 29 Q678 21 668.5 18 Q659 15 643 15 Q624 15 566 20 Q511 24 466 29 L465 13 Q505 7 538 -3 Q573 -13 587 -24 Q611 -39 611 -82 Q696 -82 744 -40 Q785 -5 815 121 Q843 238 856 413 Q886 416 899 429 L812 502 L765 455 L286 455 Q293 489 306 570 L315 627 L906 627 Q931 627 935 643 Q911 665 869 697 L832 725 L777 656 Z" /><glyph glyph-name="uni4E13" unicode="&#x4e13;" d="M806 485 L428 485 Q445 541 479 655 L480 660 L844 660 Q866 660 870 676 Q848 697 810 728 L776 755 L724 690 L488 690 Q497 722 510 777 L514 793 Q530 791 542 797 Q551 802 555 812 L440 848 Q430 800 402 690 L99 690 L107 660 L395 660 Q376 592 344 485 L41 485 L50 456 L335 456 Q317 401 290 323 Q264 313 248 301 L333 238 L372 279 L680 279 Q651 235 609.5 180.5 Q568 126 530 84 Q418 137 240 159 L234 145 Q338 108 449 43 Q570 -28 624 -91 Q652 -97 667 -84 Q682 -71 676 -46 Q670 -19 641 10 Q608 44 553 73 Q614 116 676 168 Q741 222 781 263 Q799 264 808 266 Q817 268 823 274 L737 357 L686 308 L373 308 Q381 333 399 392 L419 456 L931 456 Q942 456 949.5 460 Q957 464 958 472 Q935 493 895 526 L860 555 L806 485 Z" /><glyph glyph-name="uni4E16" unicode="&#x4e16;" d="M521 261 L521 517 L700 517 L700 261 L521 261 ZM715 163 Q736 163 758 172.5 Q780 182 780 189 L780 517 L944 517 Q967 517 971 533 Q949 554 911 586 L877 614 L825 547 L780 547 L780 782 Q798 785 806.5 792 Q815 799 817 810 L700 822 L700 547 L521 547 L521 797 Q539 800 547 807 Q555 814 558 826 L442 838 L442 547 L273 547 L273 778 Q291 781 299 787.5 Q307 794 309 806 L193 818 L193 547 L37 547 L44 517 L193 517 L193 22 Q172 9 164 -2 L251 -58 L280 -13 L920 -13 Q943 -13 947 3 Q923 26 882 60 L845 89 L789 16 L273 16 L273 517 L442 517 L442 139 L457 139 Q478 139 499.5 149 Q521 159 521 167 L521 232 L700 232 L700 163 L715 163 Z" /><glyph glyph-name="uni4E1D" unicode="&#x4e1d;" d="M518 378 Q533 385 542 404 Q594 416 686 443 L708 449 Q658 379 610 322 Q557 259 515 224 Q509 220 495 215 L483 212 L531 113 Q543 118 551 132 Q689 157 892 203 L921 210 L920 227 Q666 214 558 213 Q647 284 743 385 Q834 482 888 561 Q903 558 913 562 Q923 566 927 574 L819 637 Q789 569 728 480 Q623 477 539 477 Q600 534 665 616 Q726 693 766 760 Q781 759 790.5 763.5 Q800 768 803 775 L688 827 Q663 751 608 649 Q548 539 500 489 Q495 485 483 480 L472 477 L518 378 ZM107 98 Q121 105 130 121 Q253 151 431 202 L449 207 L448 223 L423 221 Q208 205 137 202 Q231 281 329 392 Q424 498 478 582 Q493 579 503 583 Q513 587 518 595 L410 660 Q379 586 314 487 Q176 483 126 483 Q186 540 251 622 Q312 700 351 767 Q365 766 374.5 770 Q384 774 388 782 L272 834 Q248 758 193 656 Q134 546 87 496 Q83 492 70 487 L59 484 L106 384 Q120 390 131 412 Q181 423 270 449 L296 457 Q244 381 194 318 Q138 250 94 212 Q88 207 74 203 L60 199 L107 98 ZM789 8 L43 8 L51 -21 L936 -21 Q960 -21 964 -5 Q937 18 891 53 L850 83 L789 8 Z" /><glyph glyph-name="uni4E22" unicode="&#x4e22;" d="M795 345 L540 345 L540 521 L864 521 Q886 521 890 537 Q866 558 825 591 L788 620 L734 550 L540 550 L540 711 Q688 726 806 748 Q825 739 840 739 Q855 739 863 745 L779 827 Q661 790 470 754 Q272 717 101 701 L103 683 Q267 686 454 702 L454 550 L118 550 L126 521 L454 521 L454 345 L49 345 L58 316 L424 316 Q381 252 304 176 Q218 90 151 53 Q145 49 132 46 L120 44 L157 -57 Q169 -52 179 -40 Q543 5 786 45 Q829 -22 842 -70 Q860 -82 876.5 -82 Q893 -82 903.5 -71 Q914 -60 917 -41 Q920 -22 914 2 Q907 28 889 54 Q870 84 839 112 Q805 143 759 170 Q708 200 645 224 L634 215 Q712 148 770 68 Q379 47 208 43 Q288 87 370.5 146 Q453 205 504 254 Q519 252 529.5 256 Q540 260 544 267 L441 316 L932 316 Q943 316 950.5 320 Q958 324 959 332 Q934 355 891 389 L853 418 L795 345 Z" /><glyph glyph-name="uni4E24" unicode="&#x4e24;" d="M558 575 L395 575 L395 738 L558 738 L558 575 ZM800 766 L48 766 L55 738 L321 738 L321 575 L193 575 L106 614 L106 -82 L119 -82 Q135 -82 152 -76 Q166 -72 175.5 -65 Q185 -58 185 -53 L185 547 L321 547 Q319 422 298 330 Q268 206 199 115 L212 104 Q289 166 332 254 Q369 326 383 419 Q408 376 424 333 Q442 285 443 247 Q461 229 478.5 232.5 Q496 236 504 258 Q512 280 505 310 Q497 344 471 379 Q440 419 388 454 Q394 502 394 547 L558 547 Q558 461 551 400 Q542 316 519 248 Q491 168 442 104 L453 93 Q532 155 575 243 Q610 315 623 409 Q660 355 684 303 Q712 242 716 195 Q737 176 755 182 Q773 188 779.5 214 Q786 240 774 275 Q762 316 728 357 Q690 404 628 446 Q632 493 632 547 L806 547 L806 31 Q806 19 800.5 13.5 Q795 8 780 8 Q762 8 692 13 L626 17 L626 1 Q696 -7 730 -29 Q742 -37 748 -51 Q753 -62 757 -83 Q812 -78 841 -64 Q868 -51 878 -28 Q886 -10 886 23 L886 533 Q900 535 912 541 Q923 546 929 551 L836 623 L796 575 L632 575 L632 738 L933 738 Q943 738 950.5 742 Q958 746 959 753 Q935 775 894 808 L857 836 L800 766 Z" /><glyph glyph-name="uni4E2A" unicode="&#x4e2a;" d="M454 557 L454 -83 L470 -83 Q485 -83 501 -78.5 Q517 -74 528 -67.5 Q539 -61 539 -56 L539 517 Q558 520 566 527 Q574 534 576 545 L454 557 ZM511 774 Q569 648 668.5 542 Q768 436 898 361 Q906 387 922 406 Q940 427 966 436 L968 451 Q830 505 714 593 Q600 681 528 785 Q549 787 558.5 792 Q568 797 571 806 L438 841 Q408 760 345.5 670 Q283 580 203 498 Q119 414 32 356 L39 342 Q140 390 235 464 Q324 533 397 616 Q467 695 511 774 Z" /><glyph glyph-name="uni4E2D" unicode="&#x4e2d;" d="M539 334 L539 600 L811 600 L811 334 L539 334 ZM184 334 L184 600 L456 600 L456 334 L184 334 ZM845 675 L801 629 L539 629 L539 800 Q557 803 565 810 Q573 817 576 829 L456 842 L456 629 L192 629 L102 668 L102 209 L115 209 Q131 209 148 214 Q163 219 173.5 226 Q184 233 184 237 L184 305 L456 305 L456 -81 L472 -81 Q487 -81 502.5 -75.5 Q518 -70 528.5 -62.5 Q539 -55 539 -49 L539 305 L811 305 L811 222 L825 222 Q845 222 869.5 231 Q894 240 895 246 L895 584 Q909 587 920.5 593 Q932 599 937 605 L845 675 Z" /><glyph glyph-name="uni4E30" unicode="&#x4e30;" d="M814 219 L540 219 L540 420 L859 420 Q882 420 886 436 Q863 457 824 489 L789 517 L737 449 L540 449 L540 634 L902 634 Q925 634 929 649 Q905 672 865 706 L829 735 L774 663 L540 663 L540 800 Q558 803 565.5 810 Q573 817 575 829 L455 842 L455 663 L84 663 L93 634 L455 634 L455 449 L134 449 L142 420 L455 420 L455 219 L41 219 L49 190 L455 190 L455 -81 L472 -81 Q487 -81 503 -75.5 Q519 -70 529.5 -62.5 Q540 -55 540 -49 L540 190 L947 190 Q971 190 975 206 Q951 229 908 264 L871 294 L814 219 Z" /><glyph glyph-name="uni4E38" unicode="&#x4e38;" d="M936 176 L924 176 Q898 46 891 28 Q887 22 883.5 19.5 Q880 17 873 16 Q857 14 824 14 L771 14 Q755 14 749.5 19 Q744 24 744 37 L744 567 Q773 571 784 584 L697 658 L653 609 L456 609 Q459 671 461 796 Q478 798 486.5 805 Q495 812 497 824 L375 837 Q375 682 373 609 L86 609 L95 580 L372 580 Q365 451 345 364 Q259 402 142 428 L134 416 Q225 372 327 297 Q291 189 225 104 Q152 10 36 -65 L48 -82 Q179 -16 265 69 Q343 148 387 247 Q453 189 485 137 Q515 125 532.5 138.5 Q550 152 546 181 Q541 213 511 249 Q477 291 416 327 Q433 383 443 451 Q451 507 455 580 L663 580 L663 15 Q663 -15 670 -31 Q677 -47 695.5 -54.5 Q714 -62 750 -62 L820 -62 Q877 -62 909.5 -56.5 Q942 -51 955 -40.5 Q968 -30 968 -13 Q968 0 962.5 7.5 Q957 15 941 22 L936 176 Z" /><glyph glyph-name="uni4E3A" unicode="&#x4e3a;" d="M164 797 Q201 757 230 711 Q263 656 271 613 Q295 594 316.5 600 Q338 606 345.5 630 Q353 654 341 683 Q326 718 289 747 Q245 782 175 804 L164 797 ZM863 613 L815 562 L531 562 Q538 615 541 680 Q543 720 545 797 L545 799 Q563 801 570.5 808 Q578 815 580 827 L455 840 Q455 747 454 701 Q452 623 445 562 L67 562 L76 533 L441 533 Q425 417 387 324 Q343 215 264 125 Q176 24 41 -59 L53 -75 Q216 3 321 107 Q415 199 466 314 Q509 410 527 533 L826 533 Q816 323 800 200 Q781 56 754 31 Q745 23 736 20 Q727 17 710 17 Q675 17 535 32 L534 14 Q574 8 609 -1 Q646 -11 660 -22 Q682 -36 682 -76 Q729 -76 761 -66 Q795 -55 818 -30 Q856 8 879 159 Q899 292 908 521 Q938 524 951 537 L863 613 ZM531 412 Q567 365 592 311 Q621 247 624 197 Q648 176 670 181 Q692 186 702 211.5 Q712 237 701 270 Q689 309 653 345 Q611 387 542 419 L531 412 Z" /><glyph glyph-name="uni4E3B" unicode="&#x4e3b;" d="M339 830 Q393 796 443 747 Q498 693 519 647 Q547 633 567.5 643.5 Q588 654 589 681 Q590 708 568 737 Q543 772 492 797 Q433 826 347 839 L339 830 ZM801 -8 L542 -8 L542 289 L849 289 Q860 289 867.5 293 Q875 297 876 305 Q852 326 811 359 L775 387 L721 318 L542 318 L542 574 L892 574 Q915 574 919 590 Q894 613 852 646 L815 674 L759 604 L107 604 L116 574 L456 574 L456 318 L149 318 L156 289 L456 289 L456 -8 L40 -8 L49 -37 L936 -37 Q959 -37 963 -21 Q938 2 895 35 L857 64 L801 -8 Z" /><glyph glyph-name="uni4E45" unicode="&#x4e45;" d="M622 719 L571 668 L366 668 Q394 735 410 786 Q442 786 449 807 L323 842 Q287 676 213 529 Q143 387 52 292 L64 283 Q243 405 354 639 L576 639 Q526 394 400 222 Q261 33 31 -69 L40 -83 Q270 -10 415 134 Q542 260 614 452 Q636 277 693 156 Q765 3 901 -82 Q908 -47 926.5 -29.5 Q945 -12 977 -7 L979 4 Q813 83 725 217 Q651 330 629 491 Q648 549 666 623 Q685 625 694 628 Q703 631 709 638 L622 719 Z" /><glyph glyph-name="uni4E49" unicode="&#x4e49;" d="M365 821 Q409 768 440 708 Q477 638 484 582 Q510 561 532 567.5 Q554 574 561.5 602.5 Q569 631 556 667 Q540 709 499 748 Q451 794 376 828 L365 821 ZM729 766 Q699 612 645 487 Q586 349 497 243 Q392 338 322 460 Q249 587 214 742 L195 731 Q255 398 448 188 Q286 23 34 -66 L41 -81 Q313 -11 492 143 Q648 -2 869 -77 Q883 -48 908 -31.5 Q933 -15 965 -14 L968 -2 Q723 63 550 198 Q650 301 717 438 Q777 559 815 715 Q836 714 845.5 719 Q855 724 859 735 L729 766 Z" /><glyph glyph-name="uni4E4B" unicode="&#x4e4b;" d="M348 832 Q389 792 420 742 Q456 685 464 639 Q489 621 510 628.5 Q531 636 538 661 Q545 686 532 717 Q516 753 476 783 Q430 818 358 840 L348 832 ZM255 143 Q432 214 586 326 Q736 434 832 557 Q853 558 862.5 561 Q872 564 878 571 L795 649 L739 600 L85 600 L94 570 L730 570 Q650 458 510 343 Q377 234 229 154 L222 154 Q212 154 178 131 Q157 118 108 82 Q53 41 31 27 L99 -68 Q111 -57 106 -45 Q126 -13 176 58 Q202 96 210.5 108 Q219 120 227 120.5 Q235 121 245 108 Q290 47 339 13.5 Q388 -20 455 -35 Q520 -49 620 -49 L900 -49 Q904 -20 919 0 Q935 21 962 26 L962 39 Q886 35 805 34 Q755 33 649 33 Q546 33 481 41 Q407 50 356 72 Q302 96 260 139 L255 143 Z" /><glyph glyph-name="uni4E50" unicode="&#x4e50;" d="M286 327 Q241 225 171 131 Q105 43 35 -15 L46 -27 Q134 19 211 89 Q292 164 352 258 Q368 255 378.5 259 Q389 263 393 272 L286 327 ZM916 395 Q926 395 933.5 399 Q941 403 942 411 Q920 432 881 463 L846 490 L794 425 L572 425 L572 628 Q589 631 596.5 637 Q604 643 606 654 L491 667 L491 425 L239 425 Q252 490 267 579 Q281 664 290 726 Q420 725 567 734 Q700 742 811 756 Q830 748 844 747 Q858 746 866 752 L786 836 Q706 813 577.5 789.5 Q449 766 322 752 L214 780 Q210 719 192 611 Q175 505 158 433 Q140 424 126 413 L208 360 L241 395 L491 395 L491 32 Q491 20 486 15.5 Q481 11 466.5 11 Q452 11 388 16 L327 20 L327 4 Q365 -1 387.5 -8 Q410 -15 422 -24 Q434 -33 440 -48 Q444 -60 447 -80 Q501 -75 529 -62 Q555 -49 564 -26 Q572 -8 572 27 L572 395 L916 395 ZM655 311 Q726 238 784 163 Q855 69 880 2 Q898 -10 913.5 -10 Q929 -10 939 0.5 Q949 11 951 29.5 Q953 48 946 72 Q937 99 919 127 Q898 158 866 188 Q831 222 784 254 Q732 288 667 319 L655 311 Z" /><glyph glyph-name="uni4E58" unicode="&#x4e58;" d="M538 358 L538 589 L927 589 Q949 589 953 605 Q930 626 890 657 L854 684 L801 618 L538 618 L538 733 Q650 742 793 762 Q812 753 826.5 752.5 Q841 752 848 758 L768 841 Q655 808 470 777 Q281 744 116 730 L119 711 Q271 711 458 726 L458 618 L50 618 L58 589 L458 589 L458 375 Q397 258 278 149 Q164 44 34 -21 L43 -37 Q161 9 271 81 Q381 153 458 235 L458 -82 L471 -82 Q490 -82 507 -77 Q520 -73 529 -66.5 Q538 -60 538 -56 L538 318 Q593 195 687 105 Q777 19 897 -31 Q904 -4 922 14 Q940 32 963 37 L965 48 Q878 71 795.5 116 Q713 161 647 222 Q579 286 538 358 ZM106 229 Q122 234 126 252 Q194 283 281 328 L281 235 L294 235 Q308 235 322.5 239.5 Q337 244 346.5 250.5 Q356 257 356 261 L356 525 Q370 528 376.5 533.5 Q383 539 385 548 L281 557 L281 469 L78 469 L87 441 L281 441 L281 354 Q100 317 54 311 L106 229 ZM635 557 L635 310 Q635 285 641 271.5 Q647 258 663.5 252.5 Q680 247 713 247 L785 247 Q842 247 873 251.5 Q904 256 916.5 265.5 Q929 275 929 290 Q929 301 923.5 307 Q918 313 902 319 L899 393 L887 393 Q873 335 862 320 Q857 313 846 313 Q838 312 790 312 L730 312 Q713 312 708 315 Q703 318 703 327 L703 415 Q750 425 802 439 Q847 451 877 461 Q886 455 893.5 454.5 Q901 454 906 459 L847 530 Q824 513 784 488 Q742 462 703 442 L703 523 Q730 528 732 548 L635 557 Z" /><glyph glyph-name="uni4E5D" unicode="&#x4e5d;" d="M943 194 L930 194 L930 192 Q916 130 910 103 Q900 60 895 49 Q891 42 887.5 39.5 Q884 37 877 36 Q867 35 817 35 L751 35 Q732 35 726 39.5 Q720 44 720 57 L720 552 Q749 556 759 568 L673 642 L630 593 L435 593 Q438 660 440 797 Q457 800 465 807 Q473 814 475 826 L352 838 L352 787 Q352 656 350 593 L84 593 L93 564 L349 564 Q342 428 317 330 Q286 212 224 121 Q154 18 38 -62 L50 -78 Q196 -2 282 102 Q359 195 395 319 Q425 419 434 564 L641 564 L641 41 Q641 10 648.5 -6.5 Q656 -23 675.5 -30.5 Q695 -38 733 -38 L813 -38 Q877 -38 912 -33.5 Q947 -29 961 -18.5 Q975 -8 975 10 Q975 21 969 28.5 Q963 36 946 43 L943 194 Z" /><glyph glyph-name="uni4E66" unicode="&#x4e66;" d="M679 799 Q727 766 775 717 Q827 665 851 623 Q879 610 898.5 621 Q918 632 919 657.5 Q920 683 899 711 Q875 743 827 767 Q770 795 688 808 L679 799 ZM491 599 L688 599 L672 373 L491 373 L491 599 ZM861 420 L814 373 L753 373 L768 591 Q782 593 789 595.5 Q796 598 801 604 L718 671 L681 629 L491 629 L491 804 Q507 807 514 813 Q521 819 523 830 L407 843 L407 629 L128 629 L137 599 L407 599 L407 373 L54 373 L62 344 L407 344 L407 -81 L423 -81 Q438 -81 454 -75.5 Q470 -70 480.5 -62.5 Q491 -55 491 -50 L491 344 L823 344 Q815 120 786 94 Q780 89 773 87 Q766 85 751.5 85 Q737 85 650 91 L616 94 L615 79 Q646 74 673.5 65.5 Q701 57 714 47 Q734 30 732 -11 Q806 -11 845 22 Q874 46 889 124 Q904 196 909 331 Q938 335 948 347 L861 420 Z" /><glyph glyph-name="uni4E71" unicode="&#x4e71;" d="M440 275 L440 41 L171 41 L171 275 L440 275 ZM450 529 L342 529 L342 712 Q424 727 500 748 Q519 741 533.5 741.5 Q548 742 555 748 L461 832 Q392 795 272.5 754 Q153 713 43 689 L47 673 Q148 679 262 698 L262 529 L39 529 L47 499 L262 499 L262 304 L183 304 L94 341 L94 -76 L107 -76 Q125 -76 141 -71 Q154 -67 162.5 -60.5 Q171 -54 171 -51 L171 12 L440 12 L440 -65 L451 -65 Q469 -65 492.5 -56.5 Q516 -48 517 -43 L517 261 Q546 267 559 281 L470 350 L430 304 L342 304 L342 499 L567 499 Q590 499 594 515 Q572 536 534 568 L500 595 L450 529 ZM928 195 L916 195 Q891 55 881 35 Q875 23 863 21.5 Q851 20 802 20 L742 20 Q720 20 713 26.5 Q706 33 706 49 L706 780 Q740 785 742 808 L627 822 L627 24 Q627 -8 635.5 -25.5 Q644 -43 664.5 -51 Q685 -59 723 -59 L799 -59 Q863 -59 898 -54 Q933 -49 947.5 -38 Q962 -27 962 -8 Q962 4 955.5 12.5 Q949 21 932 28 L928 195 Z" /><glyph glyph-name="uni4E86" unicode="&#x4e86;&#xf9ba;" d="M827 808 L771 756 L109 756 L118 728 L756 728 Q713 684 656 635 Q594 581 539 542 L459 550 L459 39 Q459 27 453 21.5 Q447 16 432 16 Q415 16 334 21 L256 26 L256 11 Q302 5 329.5 -2.5 Q357 -10 371.5 -20.5 Q386 -31 394 -45 Q400 -58 403 -79 Q463 -74 494 -59 Q523 -46 534 -21 Q543 -2 543 34 L543 512 Q559 514 567 520.5 Q575 527 577 538 L571 539 Q645 574 732 626 Q805 669 872 716 Q891 717 901 719 Q911 721 917 727 L827 808 Z" /><glyph glyph-name="uni4E8B" unicode="&#x4e8b;" d="M742 134 L538 134 L538 227 L742 227 L742 134 ZM538 348 L742 348 L742 255 L538 255 L538 348 ZM257 498 L257 598 L457 598 L457 498 L257 498 ZM740 598 L740 498 L538 498 L538 598 L740 598 ZM838 255 L820 255 L820 335 Q847 341 860 354 L772 421 L732 377 L538 377 L538 469 L740 469 L740 434 L753 434 Q771 434 795.5 443 Q820 452 821 457 L821 585 Q848 591 861 604 L771 671 L730 627 L538 627 L538 706 L931 706 Q953 706 957 722 Q933 743 892 775 L856 803 L801 736 L538 736 L538 802 Q571 806 574 829 L457 842 L457 736 L43 736 L51 706 L457 706 L457 627 L264 627 L178 663 L178 416 L189 416 Q204 416 221 421 Q236 425 246.5 430.5 Q257 436 257 440 L257 469 L457 469 L457 377 L155 377 L164 348 L457 348 L457 255 L41 255 L50 227 L457 227 L457 134 L149 134 L157 105 L457 105 L457 29 Q457 17 451 12 Q445 7 430 7 Q415 7 347 12 L281 16 L281 0 Q320 -4 345 -12 Q368 -19 382 -29 Q394 -38 400.5 -50.5 Q407 -63 410 -82 Q465 -77 494 -63 Q520 -50 530 -27 Q538 -9 538 25 L538 105 L742 105 L742 49 L753 49 Q772 49 795.5 58.5 Q819 68 820 74 L820 227 L946 227 Q968 227 972 243 Q952 262 917 294 L885 321 L838 255 Z" /><glyph glyph-name="uni4E8E" unicode="&#x4e8e;" d="M795 452 L546 452 L546 722 L864 722 Q887 722 891 738 Q865 759 823 793 L786 822 L729 750 L117 750 L125 722 L462 722 L462 452 L41 452 L50 424 L462 424 L462 41 Q462 28 456.5 23 Q451 18 435 18 Q419 18 346 23 L277 27 L277 12 Q319 7 346 -1 Q369 -9 385 -20 Q409 -38 412 -80 Q468 -76 499 -59 Q527 -45 537 -19 Q546 2 546 37 L546 424 L933 424 Q943 424 950.5 428 Q958 432 960 440 Q935 463 892 497 L853 526 L795 452 Z" /><glyph glyph-name="uni4E92" unicode="&#x4e92;" d="M314 242 Q340 366 365 517 L668 517 L634 242 L314 242 ZM805 -2 L692 -2 L751 506 Q766 507 774.5 510.5 Q783 514 789 520 L703 593 L662 546 L370 546 Q388 657 398 724 L900 724 Q924 724 928 740 Q903 762 861 795 L823 824 L765 753 L69 753 L78 724 L313 724 Q304 634 280 491 Q255 343 233 251 Q208 240 195 230 L282 172 L318 212 L632 212 L605 -2 L40 -2 L48 -31 L941 -31 Q951 -31 958.5 -27 Q966 -23 968 -15 Q943 8 900 41 L862 70 L805 -2 Z" /><glyph glyph-name="uni4E9B" unicode="&#x4e9b;" d="M77 264 Q94 270 101 288 Q363 360 536 419 L533 435 Q452 420 369 408 L369 601 L515 601 Q538 601 542 617 Q523 636 489 667 L460 693 L416 631 L369 631 L369 801 Q388 804 396 811 Q404 818 406 829 L293 840 L293 395 Q234 386 196 380 L196 685 Q225 689 228 709 L125 720 L125 370 Q69 361 33 358 L77 264 ZM196 197 L817 197 Q828 197 835.5 201 Q843 205 844 213 Q822 234 783 264 L749 291 L698 227 L188 227 L196 197 ZM793 -20 L62 -20 L70 -48 L919 -48 Q942 -48 946 -33 Q922 -12 882 21 L847 49 L793 -20 ZM924 534 L912 534 Q888 433 878 415 Q874 409 869 406.5 Q864 404 856 403 Q844 402 770 402 L677 402 Q651 402 643.5 406.5 Q636 411 636 425 L636 583 Q701 597 769 621 Q831 642 877 664 Q916 654 927 668 L836 734 Q804 705 748.5 670.5 Q693 636 636 609 L636 803 Q650 805 658 812 Q666 819 667 828 L558 840 L558 407 Q558 376 566.5 359.5 Q575 343 597 336 Q619 329 662 329 L765 329 Q843 329 884.5 334 Q926 339 942 349.5 Q958 360 958 378 Q958 390 951.5 397 Q945 404 927 411 L924 534 Z" /><glyph glyph-name="uni4EA1" unicode="&#x4ea1;" d="M378 837 Q419 797 452 747 Q489 689 499 643 Q524 625 546 632 Q568 639 575 664.5 Q582 690 567 721 Q551 757 510 787 Q463 823 388 845 L378 837 ZM803 614 L34 614 L43 585 L194 585 L194 31 Q166 18 153 5 L249 -57 L283 -7 L884 -7 Q908 -7 912 9 Q888 31 846 65 L810 94 L754 22 L274 22 L274 585 L941 585 Q965 585 969 601 Q943 624 900 658 L861 688 L803 614 Z" /><glyph glyph-name="uni4EA4" unicode="&#x4ea4;" d="M377 835 Q412 805 442 763 Q475 717 484 679 Q509 663 529.5 670.5 Q550 678 557 701 Q564 724 551 750 Q536 781 498 804 Q454 831 386 843 L377 835 ZM931 630 Q955 630 958 646 Q936 669 896 705 L861 736 L808 660 L49 660 L57 630 L931 630 ZM601 588 Q669 541 731 478 Q800 407 825 350 Q843 341 858 342 Q873 343 882.5 353.5 Q892 364 893.5 381 Q895 398 886.5 419.5 Q878 441 859 464 Q837 489 806 512 Q770 537 724 558 Q672 581 609 598 L601 588 ZM88 318 Q177 356 259 421 Q333 479 381 544 Q397 541 405.5 544 Q414 547 418 555 L307 610 Q276 539 215 463 Q151 382 79 331 L88 318 ZM643 444 Q591 306 494 200 Q375 297 319 427 L303 416 Q354 269 456 161 Q293 6 36 -66 L42 -81 Q184 -56 303 -5 Q416 43 504 114 Q653 -17 895 -81 Q904 -51 923.5 -33 Q943 -15 971 -11 L973 1 Q853 23 749 61 Q639 101 553 157 Q660 259 715 383 Q733 380 742 383 Q751 386 756 395 L643 444 Z" /><glyph glyph-name="uni4EAB" unicode="&#x4eab;" d="M60 678 L924 678 Q946 678 950 694 Q927 717 887 749 L852 777 L799 708 L518 708 Q539 710 549.5 728.5 Q560 747 552 770 Q543 796 511 816 Q475 840 414 850 L404 843 Q430 819 451 786 Q475 749 481 719 Q494 710 509 708 L51 708 L60 678 ZM296 472 L296 581 L700 581 L700 472 L296 472 ZM713 406 Q732 406 756 414 Q780 422 781 428 L781 566 Q796 569 807.5 574.5 Q819 580 824 586 L731 655 L690 610 L302 610 L216 646 L216 396 L228 396 Q243 396 260 401 Q275 405 285.5 410.5 Q296 416 296 420 L296 442 L700 442 L700 406 L713 406 ZM814 187 L539 187 L539 236 Q561 239 568 249 Q755 288 842 324 Q861 325 871 327 Q881 329 888 334 L807 411 L755 366 L132 366 L141 337 L715 337 Q646 303 536 264 L456 272 L456 187 L37 187 L46 157 L456 157 L456 33 Q456 22 450.5 17.5 Q445 13 431 13 Q417 13 348 18 L282 22 L282 7 Q356 -2 382 -22 Q394 -30 400 -46 Q406 -58 409 -79 Q465 -74 494 -60 Q521 -48 531 -24 Q539 -5 539 30 L539 157 L937 157 Q961 157 965 173 Q942 195 902 227 L867 254 L814 187 Z" /></font>
</defs>
</svg>
